<svg width="484" height="52" viewBox="0 0 484 52" fill="none" xmlns="http://www.w3.org/2000/svg">
<mask id="mask0_3_35" style="mask-type:alpha" maskUnits="userSpaceOnUse" x="0" y="0" width="484" height="52">
<rect width="484" height="52" fill="#D9D9D9"/>
</mask>
<g mask="url(#mask0_3_35)">
<path d="M-9 -65V10.2999L-6.12182 11.8607L2.13894 11.1633L8.72886 12.5913L15.5281 11.6083L22.3797 10.6154L27.8669 12.9234L33.3355 12.5814L38.7367 13.6375L44.3922 12.2692L49.629 15.0688L54.8134 16.4437L59.6989 18.8481L66.3449 18.6388L70.3407 23.5107L77.8053 19.8377L82.1599 26.1277L87.6397 27.3896L93.4446 27.4527L98.3525 29.4254L93.8745 33.7427L98.7898 37.1035L103.739 39.1459L108.669 44.2934L114.855 46.6446L121.688 44.1772L128.065 44.3133L134.371 47L140.628 42.7159L146.953 45.4358L152.317 41.444L158.847 42.965L165.366 43.7156L170.528 39.9695L175.686 36.167L181.693 34.9515L188.574 37.9238L194.502 37.6681L200.364 35.3168L206.752 35.1707L211.274 30.6508L217.674 30.073L223.094 27.6387L226.921 22.8565L232.087 20.1034L239.197 20.6846L242.265 13.9131L249.853 16.8189L254.286 10.8678L260.798 13.5677L266.405 9.40985L272.972 13.5113L278.534 9.92792L284.679 10.5788L290.697 10.6718L296.573 9.4331L302.532 9.15414L308.763 10.6585L314.979 11.5984L321.232 11.9404L327.62 11.067L334.023 10.353L340.464 9.48955L346.153 10.9574L351.924 12.681L357.849 11.5585L363.702 12.0035L369.526 12.7076L375.189 14.1954L381.237 13.8666L386.059 17.782L392.125 19.2798L398.498 19.0141L405.111 15.6699L412.048 15.4109L418.709 18.3964L425.026 18.5691L431.598 17.2407L437.653 18.8647L443.641 21.4883L450.014 20.2097L456.204 20.1333L462.891 22.9428L468.102 18.4396L473.832 16.9153L480.355 20.0901L486.021 16.3507L492.181 16.4736L493 17.0315V-65H-9Z" fill="white"/>
<path d="M0.24411 -77.1751V4.54579L3.01754 6.23975L10.9776 5.48288L17.3277 7.03268L23.8795 5.96584L30.4817 4.88819L35.7692 7.39308L41.0387 7.02185L46.2434 8.16798L51.693 6.68307L56.7392 9.72137L61.7349 11.2135L66.4425 13.8229L72.8466 13.5959L76.697 18.8832L83.8899 14.897L88.0861 21.7233L93.3664 23.0928L98.9601 23.1613L103.689 25.3022L99.3743 29.9876L104.111 33.635L108.88 35.8516L113.63 41.438L119.591 43.9898L126.176 41.3119L132.32 41.4597L138.397 44.3754L144.426 39.7261L150.521 42.6779L155.689 38.3457L161.982 39.9964L168.263 40.8109L173.237 36.7454L178.208 32.6187L183.996 31.2995L190.627 34.5253L196.34 34.2477L201.987 31.696L208.143 31.5374L212.501 26.6321L218.668 26.005L223.89 23.3631L227.579 18.1731L232.556 15.1853L239.407 15.816L242.364 8.46712L249.676 11.6208L253.948 5.16211L260.222 8.09229L265.625 3.57988L271.953 8.03103L277.313 4.14213L283.234 4.84854L289.033 4.94946L294.695 3.60511L300.437 3.30236L306.441 4.93504L312.431 5.95503L318.457 6.32625L324.612 5.37836L330.782 4.60347L336.988 3.66637L342.47 5.25942L348.032 7.12999L353.741 5.91177L359.381 6.39473L364.993 7.15882L370.45 8.77348L376.277 8.41667L380.924 12.666L386.77 14.2915L392.911 14.0031L399.282 10.3737L405.967 10.0926L412.386 13.3327L418.473 13.5238L424.805 12.0785L430.64 13.8409L436.41 16.6846L442.552 15.3006L448.516 15.2177L454.96 18.2669L459.981 13.3796L465.503 11.7253L471.788 15.1709L477.248 11.1126L483.184 11.2459L483.973 11.8514V-77.1751H0.24411Z" fill="#f5ebde"/>
</g>
</svg>
