<svg width="481" height="129" viewBox="0 0 481 129" fill="none" xmlns="http://www.w3.org/2000/svg">
<mask id="mask0_3_44" style="mask-type:alpha" maskUnits="userSpaceOnUse" x="0" y="0" width="481" height="129">
<rect width="481" height="129" fill="#D9D9D9"/>
</mask>
<g mask="url(#mask0_3_44)">
<path d="M-6 121.324V18H488V103.278C485.605 105.706 481.474 103.64 480.901 101.706C482.328 104.433 472.565 106.473 473.518 102.654C473.075 98.9371 465.721 102.263 466.172 103.981C464.757 103.733 459.632 103.539 458.848 105.101C459.477 101.642 451.092 106.543 451.802 109.092C450.541 107.898 445.073 108.102 444.496 108.901C445.438 105.193 436.695 104.961 436.695 107.901C436.695 106.915 427.919 113.343 427.919 112.026C427.919 112.026 419.886 108.882 419.886 107.036C419.886 103.688 410.275 106.1 410.275 107.087C410.275 107.437 401.835 103.259 401.835 104.236C401.835 106.243 397.038 95.8853 397.038 96.4422C397.038 94.2083 389.349 101.963 389.349 99.2871C389.349 102.068 381.352 95.758 381.352 95.3412C381.352 96.5504 374.132 98.1288 374.132 97.2314C374.132 98.5584 368.637 101.788 368.637 104.054C368.637 100.977 360.94 103.784 360.94 104.503C360.94 107.831 354.007 108.105 354.007 107.17C354.007 103.78 345.076 105.769 345.076 104.045C345.076 104.283 339.23 108.251 339.23 109.849C339.23 109.693 331.529 111.692 331.529 110.285C331.529 110.18 323.296 112.255 323.296 109.184C323.296 107.332 318.167 114.664 318.167 117.06C318.167 116.093 310.13 116.859 310.13 116.067C310.13 114.352 301.86 118.139 301.86 118.635C301.86 115.793 297.467 110.96 297.467 111.857C297.467 112 290.047 113.795 290.047 111.275C290.047 112.226 283.99 109.407 283.99 106.848C283.99 109.225 276.637 105.868 276.637 107.427C276.637 104.181 271.027 117.604 271.027 113.079C271.027 113.232 263.264 110.909 263.264 111.042C263.264 109.41 257.159 117.665 257.159 115.873C257.159 114.26 248.937 110.765 248.937 111.431C248.937 110.975 242.744 120.987 242.744 117.986C242.744 113.811 235.398 120.685 235.398 117.55C235.398 118.642 228.126 115.081 228.126 117.206C228.126 116.519 220.798 114.845 220.798 115.867C220.798 114.075 212.957 121.731 212.957 119.275C212.957 121.079 204.964 121.356 204.964 120.866C204.964 122.702 196.491 117.365 196.491 116.646C196.491 116.866 188.446 121.073 188.446 117.614C188.446 115.1 180.535 122.559 180.535 120.159C180.535 119.055 172.187 113.814 172.187 117.429C172.187 112.217 164.557 122.005 164.557 123.399C164.557 125.929 156.771 122.333 156.771 120.84C156.771 124.08 149.096 125.175 149.096 119.453C149.096 117.206 141.765 123.097 141.765 122.74C141.765 122.68 134.082 122.279 134.082 120.805C134.082 120.621 126.574 118.263 126.574 121.521C126.574 119.793 119.128 123.794 119.128 125.999C119.128 126.078 111.501 121.989 111.501 122.661C111.501 120.554 104.014 121.837 104.014 120.048C104.014 122.307 96.5019 120.131 96.5019 120.475C96.5019 122.696 88.971 122.562 88.971 120.672C88.971 122.457 81.5768 121.859 81.5768 119.453C81.5768 118.406 73.8206 123.265 73.8206 120.71C73.8206 120.118 66.4264 123.033 66.4264 119.249C66.4264 118.957 58.696 118.384 58.696 119.485C58.696 119.195 51.2464 119.526 51.2464 118.416C51.2464 125.248 43.4939 118.113 43.4939 119.692C43.4939 118.4 36.521 113.458 36.521 113.935C36.521 109.655 29.2635 117.057 28.5245 119.087C28.4136 122.871 18.2259 114.743 20.4319 114.454C18.8947 115.415 14.7746 114.177 12.635 116.315C14.4974 116.108 5.69908 120.089 5.23718 119.268C3.91059 120.707 -2.4378 118.791 -2.593 120.112C-1.84287 120.529 -3.82721 121.025 -6 121.324Z" fill="white"/>
<path d="M0.359375 117.087V0.0637207H481.877V96.6481C479.543 99.3981 475.516 97.0591 474.957 94.8677C476.348 97.9565 466.832 100.267 467.761 95.9417C467.329 91.7321 460.161 95.4984 460.6 97.4447C459.221 97.1636 454.225 96.9437 453.462 98.7134C454.074 94.7993 445.901 100.346 446.593 103.237C445.365 101.885 440.034 102.116 439.472 103.02C440.39 98.8215 431.868 98.5584 431.868 101.889C431.868 100.771 423.314 108.052 423.314 106.56C423.314 106.56 415.484 102.999 415.484 100.908C415.484 97.1167 406.115 99.8487 406.115 100.966C406.115 101.362 397.889 96.6301 397.889 97.7366C397.889 100.011 393.213 88.2793 393.213 88.91C393.213 86.3799 385.718 95.1633 385.718 92.1322C385.718 95.2822 377.923 88.1351 377.923 87.663C377.923 89.0289 370.885 90.8203 370.885 89.8039C370.885 91.3068 365.53 94.965 365.53 97.5312C365.53 94.046 358.027 97.2248 358.027 98.0394C358.027 101.813 351.27 102.123 351.27 101.06C351.27 97.2213 342.564 99.4738 342.564 97.5204C342.564 97.7907 336.866 102.285 336.866 104.094C336.866 103.918 329.36 106.185 329.36 104.588C329.36 104.469 321.335 106.819 321.335 103.341C321.335 101.243 316.335 109.548 316.335 112.261C316.335 111.166 308.501 112.034 308.501 111.137C308.501 109.194 300.44 113.483 300.44 114.045C300.44 110.827 296.158 105.352 296.158 106.369C296.158 106.531 288.925 108.564 288.925 105.709C288.925 106.787 283.022 103.593 283.022 100.696C283.022 103.384 275.854 99.5856 275.854 101.352C275.854 97.6754 270.387 112.878 270.387 107.749C270.387 107.922 262.819 105.291 262.819 105.442C262.819 103.593 256.869 112.939 256.869 110.913C256.869 109.086 248.855 105.129 248.855 105.882C248.855 105.367 242.818 116.705 242.818 113.307C242.818 108.578 235.658 116.363 235.658 112.813C235.658 114.049 228.569 110.016 228.569 112.424C228.569 111.645 221.427 109.749 221.427 110.906C221.427 108.877 213.784 117.549 213.784 114.766C213.784 116.81 205.993 117.123 205.993 116.568C205.993 118.648 197.734 112.604 197.734 111.789C197.734 112.038 189.892 116.803 189.892 112.885C189.892 110.038 182.181 118.486 182.181 115.768C182.181 114.518 174.044 108.582 174.044 112.676C174.044 106.772 166.606 117.859 166.606 119.437C166.606 122.303 159.017 118.23 159.017 116.54C159.017 120.209 151.536 121.448 151.536 114.968C151.536 112.424 144.39 119.095 144.39 118.691C144.39 118.623 136.902 118.169 136.902 116.5C136.902 116.291 129.583 113.62 129.583 117.311C129.583 115.354 122.325 119.884 122.325 122.382C122.325 122.472 114.891 117.841 114.891 118.601C114.891 116.215 107.594 117.668 107.594 115.642C107.594 118.201 100.271 115.736 100.271 116.129C100.271 118.641 92.9306 118.493 92.9306 116.352C92.9306 118.374 85.7233 117.696 85.7233 114.972C85.7233 113.786 78.163 119.29 78.163 116.395C78.163 115.725 70.9557 119.026 70.9557 114.745C70.9557 114.413 63.4206 113.764 63.4206 115.011C63.4206 114.683 56.1593 115.058 56.1593 113.8C56.1593 121.539 48.6026 113.458 48.6026 115.246C48.6026 113.782 41.8059 108.185 41.8059 108.726C41.8059 103.878 34.7318 112.261 34.0115 114.561C33.9034 118.846 23.9731 109.641 26.1234 109.313C24.625 110.402 20.609 109 18.5235 111.422C20.3388 111.187 11.7628 115.696 11.3126 114.766C10.0195 116.395 3.83156 114.226 3.68028 115.721C4.41146 116.186 2.47726 116.749 0.359375 117.087Z" fill="#FFCEAB"/>
</g>
</svg>
