<svg width="484" height="50" viewBox="0 0 484 50" fill="none" xmlns="http://www.w3.org/2000/svg">
<mask id="mask0_3_45" style="mask-type:alpha" maskUnits="userSpaceOnUse" x="0" y="0" width="484" height="50">
<rect width="484" height="50" fill="#D9D9D9"/>
</mask>
<g mask="url(#mask0_3_45)">
<path d="M-10 -66.9873V31.6672C-8.56198 31.2913 -7.03758 30.767 -6.3242 30.6754C-3.3618 32.321 -0.902527 31.0639 0.261409 32.5137C-0.358106 36.0513 7.22628 32.9939 6.82078 32.7222C8.10486 33.733 12.0697 34.791 13.4176 35.1953C14.9232 31.7051 19.7554 35.5965 19.9657 34.4878C19.6804 37.738 28.1884 27.3241 27.5201 29.9457C27.5201 34.3519 30.8654 37.2926 30.8654 37.2516C30.8654 42.4442 39.2608 36.0734 39.2608 35.7923C39.2608 36.2787 44.919 39.6647 44.919 38.2938C44.919 42.2389 50.7161 39.5667 50.7161 41.1113C50.7161 45.1953 56.7311 48.3413 56.7311 45.4228C56.7311 50.2775 63.7071 46.9736 63.7071 45.9439C63.7071 47.1631 70.3941 46.6388 70.3941 42.7853C70.3941 39.7784 76.6869 39.5604 76.6869 40.7828C76.6869 41.4966 83.6818 41.2819 83.6818 41.2819C83.6818 42.4632 90.4739 42.8833 90.4739 40.1479C90.4739 39.8037 95.4 37.2137 95.4 36.3672C95.4 35.5491 102.17 33.3191 102.17 35.6249C102.17 35.0658 106.698 37.1978 106.698 31.525C106.698 34.7436 112.108 28.8814 112.108 28.6192C112.108 26.6198 118.251 29.2603 118.251 27.0051C118.251 30.7859 124.806 23.7171 124.806 24.5825C124.806 22.1125 131.722 28.0506 131.722 25.1037C131.722 24.2825 137.628 25.5207 137.628 27.6717C137.628 29.4247 143.812 30.2111 143.812 28.3728C143.812 27.46 149.572 28.575 149.572 30.7071C149.572 30.647 155.748 35.7228 155.748 32.8232C155.748 33.9477 162.334 35.4133 162.334 35.0563C162.334 34.0582 168.51 30.8775 168.51 30.9691C168.51 27.5326 175.595 35.1827 175.595 34.1056C175.595 35.309 182.001 35.3816 182.001 32.779C182.001 31.3955 187.696 27.659 187.696 29.1656C187.696 29.8037 194.496 30.688 194.496 29.592C194.496 29.6836 200.199 26.4808 200.199 26.4334C200.199 29.8478 206.646 25.5586 206.646 25.7102C206.646 26.8789 213.085 24.6268 213.085 25.0626C213.085 23.4139 219.145 22.3621 219.145 23.0127C219.145 22.3147 225.389 19.0488 225.389 21.4777C225.389 18.0507 231.712 15.9565 231.712 19.7563C231.712 18.1265 238.485 22.0494 238.485 22.2863C238.485 19.5194 244.996 21.8315 244.996 21.6483C244.996 23.3697 251.634 18.8403 251.634 20.7196C251.634 22.4884 258.272 21.4587 258.272 20.7733C258.272 24.5794 264.614 22.0273 264.614 22.8169C264.614 21.7209 271.195 22.0209 271.195 23.2244C271.195 23.0696 278.018 23.5528 278.018 22.5642C278.018 21.9072 283.991 25.4701 283.991 25.966C283.991 24.69 290.93 24.6836 290.93 24.7816C290.93 26.4588 297.632 27.6527 297.632 24.5384C297.632 26.6988 303.883 23.4202 303.883 26.5345C303.883 27.1157 310.416 25.7512 310.416 26.9009C310.416 25.9755 316.6 31.9736 316.6 30.6786C316.6 32.7727 323.216 32.3589 323.216 32.2673C323.216 31.1208 329.91 30.587 329.91 29.5731C329.91 28.6476 336.425 30.2364 336.425 28.6034C336.425 28.7329 343.525 33.275 343.525 31.0197C343.525 28.9793 349.592 28.0538 349.592 27.3368C349.592 25.7196 351.83 22.4189 351.83 22.3621C351.83 24.7121 357.349 21.6104 357.349 19.5447C357.349 18.3097 363.773 18.2907 363.773 18.676C363.773 16.8725 370.419 17.1284 370.419 15.8965C370.419 15.5143 377.376 14.2414 377.376 15.0026C377.376 14.1182 383.541 20.0153 383.541 20.8334C383.541 21.0071 390.762 18.9351 390.762 18.0412C390.762 15.9249 396.777 17.1821 396.777 22.0841C396.777 19.7057 404.267 16.2187 404.267 19.2446C404.267 19.352 410.684 18.4455 410.684 21.2061C410.684 21.942 417.42 21.5535 417.42 21.6641C417.42 21.1082 424.245 20.786 424.245 21.3134C424.245 20.0753 430.219 26.5819 430.219 26.7809C430.219 28.2496 437.206 25.8365 437.206 24.9174C437.206 24.6394 443.736 25.2648 443.736 26.1524C443.736 25.5775 450.246 23.8908 450.246 24.8195C450.246 23.8814 456.67 25.8112 456.67 23.4581C456.67 23.2875 462.633 25.5996 463.474 26.4903C463.913 26.0449 469.905 27.1347 470.044 25.7197C471.903 26.4209 476.318 25.9155 476.442 24.3141C477.006 27.0178 482.735 24.6426 482.833 22.5042C483.82 22.8674 489.993 19.033 489.234 20.527C491.69 17.8106 499.09 21.8725 495.921 23.9951C496.342 23.5276 500.115 22.8295 502 22.3873V-67H-10V-66.9873Z" fill="white"/>
<path d="M-0.487732 -85.8497V26.7228C0.891777 26.2939 2.35414 25.6956 3.0385 25.5911C5.88036 27.4689 8.23956 26.0344 9.35614 27.6887C8.76183 31.7254 16.0376 28.2366 15.6486 27.9266C16.8804 29.08 20.684 30.2873 21.977 30.7487C23.4214 26.7661 28.057 31.2064 28.2587 29.9413C27.9849 33.65 36.1467 21.7671 35.5056 24.7585C35.5056 29.7863 38.7148 33.1418 38.7148 33.095C38.7148 39.0202 46.7686 31.7506 46.7686 31.4298C46.7686 31.9849 52.1966 35.8485 52.1966 34.2843C52.1966 38.7859 57.7578 35.7368 57.7578 37.4992C57.7578 42.1594 63.528 45.7492 63.528 42.419C63.528 47.9586 70.2202 44.1885 70.2202 43.0136C70.2202 44.4048 76.6351 43.8029 76.6351 39.4094C76.6351 35.9782 82.6718 35.7295 82.6718 37.1244C82.6718 37.9389 89.3821 37.6939 89.3821 37.6939C89.3821 39.0418 95.8979 39.5212 95.8979 36.4C95.8979 36.0071 100.623 33.0517 100.623 32.0858C100.623 31.1523 107.118 28.6077 107.118 31.2388C107.118 30.6008 111.461 33.0336 111.461 26.5605C111.461 30.2332 116.652 23.5439 116.652 23.2448C116.652 20.9633 122.544 23.9764 122.544 21.403C122.544 25.7172 128.833 17.6511 128.833 18.6386C128.833 15.8202 135.468 22.596 135.468 19.2333C135.468 18.2962 141.133 19.7091 141.133 22.1635C141.133 24.1638 147.066 25.0613 147.066 22.9636C147.066 21.922 152.591 23.1943 152.591 25.6271C152.591 25.5586 158.516 31.3505 158.516 28.0419C158.516 29.325 164.834 31.0009 164.834 30.59C164.834 29.4511 170.759 25.8217 170.759 25.9262C170.759 22.0049 177.555 30.7342 177.555 29.5052C177.555 30.8784 183.7 30.9613 183.7 27.9914C183.7 26.4128 189.164 22.1491 189.164 23.8683C189.164 24.5964 195.687 25.6055 195.687 24.3549C195.687 24.4558 201.158 20.8047 201.158 20.7507C201.158 24.6468 207.343 19.7523 207.343 19.9253C207.343 21.2589 213.52 18.6891 213.52 19.1865C213.52 17.3051 219.333 16.1049 219.333 16.8474C219.333 16.0508 225.323 12.3242 225.323 15.0957C225.323 11.1852 231.389 8.79568 231.389 13.1315C231.389 11.2717 237.886 15.7481 237.886 16.0184C237.886 12.8612 244.132 15.4994 244.132 15.2904C244.132 17.2546 250.5 12.0863 250.5 14.2307C250.5 16.2491 256.868 15.0741 256.868 14.292C256.868 18.635 262.952 15.7229 262.952 16.6239C262.952 15.3733 269.266 15.7156 269.266 17.0888C269.266 16.9122 275.81 17.4637 275.81 16.3392C275.81 15.5895 281.541 19.655 281.541 20.2209C281.541 18.7648 288.197 18.7576 288.197 18.8693C288.197 20.7867 294.626 22.1455 294.626 18.5918C294.626 21.057 300.623 17.3159 300.623 20.8696C300.623 21.5328 306.891 19.9758 306.891 21.2877C306.891 20.2317 312.823 27.076 312.823 25.5983C312.823 27.9879 319.169 27.5157 319.169 27.4112C319.169 26.1029 325.592 25.4938 325.592 24.3368C325.592 23.2808 331.841 25.0937 331.841 23.2304C331.841 23.3781 338.652 28.5609 338.652 25.9875C338.652 23.6592 344.472 22.6032 344.472 21.7851C344.472 19.9398 346.619 16.1734 346.619 16.1085C346.619 18.79 351.914 15.2507 351.914 12.8936C351.914 11.488 358.077 11.4627 358.077 11.9025C358.077 9.84447 364.452 10.1364 364.452 8.7344C364.452 8.29829 371.126 6.84579 371.126 7.7144C371.126 6.70524 377.04 13.4342 377.04 14.3677C377.04 14.566 383.967 12.2016 383.967 11.1816C383.967 8.76684 389.737 10.2013 389.737 15.795C389.737 13.081 396.923 9.10201 396.923 12.5548C396.923 12.6773 403.078 11.643 403.078 14.793C403.078 15.6292 409.54 15.1895 409.54 15.3156C409.54 14.6813 416.088 14.3136 416.088 14.9155C416.088 13.5027 421.819 20.9273 421.819 21.1544C421.819 22.8303 428.522 20.0767 428.522 19.0279C428.522 18.7143 434.785 19.4243 434.785 20.4371C434.785 19.7812 441.031 17.8565 441.031 18.9162C441.031 17.8457 447.194 20.0479 447.194 17.3628C447.194 17.1681 452.913 19.81 453.72 20.8228C454.142 20.3146 459.89 21.558 460.023 19.9434C461.806 20.7435 466.042 20.1668 466.161 18.3395C466.701 21.4246 472.198 18.7143 472.291 16.2743C473.239 16.6888 479.16 12.3133 478.432 14.0181C480.788 10.9185 487.887 15.5535 484.847 17.9755C485.251 17.442 488.871 16.6455 490.679 16.1409V-85.8569H-0.487732V-85.8497Z" fill="#f8f0e6"/>
</g>
</svg>
