<svg width="432" height="148" viewBox="0 0 432 148" fill="none" xmlns="http://www.w3.org/2000/svg">
<mask id="mask0_3_46" style="mask-type:alpha" maskUnits="userSpaceOnUse" x="0" y="0" width="432" height="148">
<rect width="432" height="148" fill="#D9D9D9"/>
</mask>
<g mask="url(#mask0_3_46)">
<path d="M-14 23V121.444C-12.8092 121.139 -10.4049 121.566 -9.09687 123.909C-8.06861 121.413 -2.62488 115.371 -1.88015 121.217C-1.29797 120.355 4.70908 117.217 6.12672 119.268C7.00377 118.297 12.1602 119.433 12.9805 118.534C13.3547 118.911 21.6376 115.241 21.6376 114.886C21.6376 113.607 28.7409 120.545 28.7409 118.581C28.7409 114.459 35.1334 123.639 35.1334 123.259C35.1334 123.016 42.9286 122.35 42.9286 123.035C42.9286 123.265 50.134 123.604 50.134 124.015C50.134 123.035 57.4905 126.225 57.4905 127.125C57.4905 127.175 64.4238 122.347 64.4238 121.892C64.4238 127.237 72.2567 124.193 72.2567 123.878C72.2567 123.794 79.534 120.579 79.534 122.35C79.534 121.927 86.1156 119.1 86.1156 118.528C86.1156 117.88 93.7481 113.361 93.7481 116.999C93.7481 119.474 101.071 110.441 101.071 112.209C101.071 112.956 109.686 118.017 109.686 115.371C109.686 114.715 116.578 112.109 116.578 114.198C116.578 117.759 123.496 110.22 123.496 111.347C123.496 112.032 130.501 114.979 130.501 113.899C130.501 116.358 137.566 108.436 137.566 111.459C137.566 111.711 144.545 111.972 144.545 112.48C144.545 114.223 151.335 113.622 151.335 115.11C151.335 115.823 158.23 114.677 158.23 115.876C158.23 114.456 165.466 114.615 165.466 114.273C165.466 116.564 172.41 116.321 172.41 115.029C172.41 113.588 179.298 118.142 179.298 116.084C179.298 117.426 185.777 118.792 185.777 118.892C185.777 119.225 192.586 121.475 192.586 120.053C192.586 122.306 199.081 123.19 199.081 122.867C199.081 123.349 206.158 122.45 206.158 123.576C206.158 121.03 213.605 125.17 213.605 123.206C213.605 124.538 219.842 125.485 219.842 126.705C219.842 123.58 227.929 125.774 227.929 124.411C227.929 124.815 234.93 122.814 234.93 125.447C234.93 121.491 240.873 127.831 240.873 129.923C240.873 134.334 247.908 130.122 247.908 130.876C247.908 131.598 255.476 125.575 255.476 129.655C255.476 131.059 261.914 135.719 261.914 132.796C261.914 132.852 268.87 135.05 268.87 133.895C268.87 129.693 276.091 136.6 276.091 133.213C276.091 133.064 282.612 137.001 282.612 138.885C282.612 142.947 290.006 137.611 290.006 135.184C290.006 135.959 297.189 136.896 297.189 139.021C297.189 137.534 304.296 137.558 304.296 136.852C304.296 134.384 311.486 137.692 311.486 136.441C311.486 133.64 318.378 133.655 318.378 133.478C318.378 135.414 325.768 132.177 325.768 131.286C325.768 131.968 333.348 132.37 333.348 133.462C333.348 133.661 341.378 132.855 341.378 136.161C341.378 140.394 349.366 138.623 349.366 137.973C349.366 134.882 354.73 139.806 354.73 140.487C354.73 142.878 360.828 144.132 360.828 141.633C360.828 134.738 366.585 139.115 366.585 138.533C366.585 136.643 374.025 141.085 374.025 141.452C374.025 144.746 380.542 138.523 380.542 136.096C380.542 135.162 388.111 138.446 388.111 140.176C388.111 137.039 395.936 140.463 394.957 137.755C395.274 138.822 402.518 139.535 402.124 137.954C402.699 138.573 408.056 136.052 409.061 137.627C407.485 132.631 414.494 135.753 416.38 138.439C416.558 137.434 422.856 136.513 423.287 136.556C421.983 135.632 431.369 134.505 430.164 134.458C430.647 134.166 437.286 132.485 437.229 132.659C437.339 134.891 438.594 136.139 440 136.696V23.0031L-14 23Z" fill="white"/>
<path d="M-0.240967 0.150146V114.139C0.893617 113.786 3.18438 114.28 4.43062 116.997C5.41033 114.107 10.597 107.111 11.3065 113.88C11.8612 112.881 17.5846 109.248 18.9353 111.623C19.7709 110.499 24.6838 111.814 25.4654 110.773C25.822 111.209 33.7137 106.96 33.7137 106.549C33.7137 105.067 40.4816 113.101 40.4816 110.827C40.4816 106.055 46.5722 116.684 46.5722 116.24C46.5722 115.959 53.9993 115.188 53.9993 115.981C53.9993 116.248 60.8644 116.64 60.8644 117.116C60.8644 115.981 67.8736 119.675 67.8736 120.717C67.8736 120.774 74.4794 115.184 74.4794 114.658C74.4794 120.843 81.9424 117.322 81.9424 116.958C81.9424 116.86 88.8761 113.137 88.8761 115.188C88.8761 114.698 95.1469 111.425 95.1469 110.762C95.1469 110.012 102.419 104.779 102.419 108.992C102.419 111.858 109.396 101.398 109.396 103.446C109.396 104.311 117.604 110.171 117.604 107.107C117.604 106.347 124.171 103.33 124.171 105.749C124.171 109.872 130.762 101.142 130.762 102.451C130.762 103.244 137.436 106.657 137.436 105.406C137.436 108.254 144.168 99.0809 144.168 102.581C144.168 102.872 150.817 103.175 150.817 103.763C150.817 105.781 157.286 105.085 157.286 106.808C157.286 107.634 163.856 106.307 163.856 107.695C163.856 106.051 170.75 106.235 170.75 105.839C170.75 108.491 177.366 108.21 177.366 106.718C177.366 105.049 183.929 110.322 183.929 107.94C183.929 109.493 190.102 111.076 190.102 111.191C190.102 111.577 196.589 114.182 196.589 112.535C196.589 115.145 202.777 116.168 202.777 115.797C202.777 116.356 209.52 115.314 209.52 116.619C209.52 113.667 216.616 118.464 216.616 116.19C216.616 117.732 222.559 118.828 222.559 120.241C222.559 116.622 230.263 119.163 230.263 117.585C230.263 118.053 236.934 115.736 236.934 118.785C236.934 114.204 242.596 121.546 242.596 123.968C242.596 129.075 249.299 124.198 249.299 125.071C249.299 125.907 256.51 118.933 256.51 123.658C256.51 125.283 262.644 130.679 262.644 127.294C262.644 127.359 269.271 129.904 269.271 128.567C269.271 123.701 276.151 131.699 276.151 127.777C276.151 127.604 282.364 132.163 282.364 134.34C282.364 139.04 289.409 132.866 289.409 130.055C289.409 130.953 296.253 132.037 296.253 134.499C296.253 132.776 303.024 132.805 303.024 131.987C303.024 129.129 309.875 132.96 309.875 131.511C309.875 128.267 316.441 128.285 316.441 128.08C316.441 130.322 323.483 126.574 323.483 125.543C323.483 126.332 330.704 126.797 330.704 128.062C330.704 128.296 338.355 127.359 338.355 131.187C338.355 136.088 345.965 134.038 345.965 133.284C345.965 129.709 351.076 135.407 351.076 136.197C351.076 138.965 356.886 140.417 356.886 137.523C356.886 129.54 362.372 134.607 362.372 133.933C362.372 131.745 369.46 136.889 369.46 137.314C369.46 141.127 375.67 133.922 375.67 131.111C375.67 130.03 382.881 133.832 382.881 135.836C382.881 132.203 390.337 136.168 389.404 133.032C389.706 134.268 396.607 135.094 396.233 133.263C396.78 133.98 401.884 131.061 402.842 132.884C401.34 127.1 408.018 130.715 409.815 133.825C409.985 132.661 415.985 131.594 416.396 131.645C415.153 130.578 424.097 129.269 422.948 129.215C423.409 128.876 429.734 126.93 429.68 127.132C429.784 129.716 430.98 131.162 432.32 131.807V0.160926H-0.240967V0.150146Z" fill="#FFCEAB"/>
</g>
</svg>
