<svg width="479" height="140" viewBox="0 0 479 140" fill="none" xmlns="http://www.w3.org/2000/svg">
<mask id="mask0_3_36" style="mask-type:alpha" maskUnits="userSpaceOnUse" x="0" y="0" width="479" height="140">
<rect width="479" height="140" fill="#D9D9D9"/>
</mask>
<g mask="url(#mask0_3_36)">
<path d="M-12 27V105.2C-10.4504 105.775 -9.07341 107.065 -8.95335 109.371C-9.01713 109.551 -1.71568 107.817 -1.18664 107.512C-2.51111 107.463 7.80702 106.298 6.37374 105.342C6.8465 105.386 13.7653 104.436 13.9642 103.396C16.0391 106.17 23.7383 109.397 22.0086 104.235C23.1117 105.865 29.0024 103.256 29.6327 103.898C29.2012 102.263 37.1593 102.998 37.512 104.104C36.439 101.304 45.0349 104.842 45.0349 101.6C45.0349 103.393 53.3532 106.783 53.3532 105.818C53.3532 103.309 60.5196 96.8769 60.5196 100.282C60.5196 100.659 68.6991 105.252 68.6991 103.297C68.6991 102.693 75.025 107.219 75.025 100.09C75.025 97.5043 81.7262 98.8 81.7262 101.272C81.7262 101.978 87.6206 107.065 87.6206 103.872C87.6206 103.201 96.4004 101.371 96.4004 105.746C96.4004 109.165 105.225 108.328 105.225 108.538C105.225 109.668 113.559 110.08 113.559 110.786C113.559 109.865 121.682 106.516 121.682 108.52C121.682 108.337 129.253 108.352 129.253 105.458C129.253 104.168 137.155 107.588 137.155 105.034C137.155 104.302 144.967 104.328 144.967 102.791C144.967 104.991 152.861 105.958 152.861 106.76C152.861 104.25 160.988 98.736 160.988 102.934C160.988 104.88 168.155 108.947 168.155 108.793C168.155 105.293 176.09 112.433 176.09 108.09C176.09 106.896 183.737 109.168 183.737 109.223C183.737 106.205 190.813 111.018 190.813 112.471C190.813 116.689 199.132 110.466 199.132 111.21C199.132 111.989 206.861 107.637 206.861 112.195C206.861 114.353 213.393 120.91 213.393 116.82C213.393 119.542 221.085 117.473 221.085 117.892C221.085 116.483 229.973 118.749 229.973 115.518C229.973 116.779 236.828 117.755 236.828 119.132C236.828 117.101 245.015 121.381 245.015 118.749C245.015 119.911 252.797 118.981 252.797 119.481C252.797 119.149 259.937 120.062 259.937 122.391C259.937 120.922 267.419 123.248 267.419 123.594C267.419 123.696 274.54 125.111 274.54 126.496C274.54 124.37 282.112 129.076 282.112 127.589C282.112 126.255 289.747 126.005 289.747 128.373C289.747 128.018 297.698 128.181 297.698 126.714C297.698 127.952 305.277 126.766 305.277 127.504C305.277 129.044 312.74 128.422 312.74 130.223C312.74 130.746 320.409 131.016 320.409 131.278C320.409 134.404 328.176 126.214 328.176 128.756C328.176 127.638 335.875 130.685 335.875 131.394C335.875 132.559 343.48 124.771 343.48 128.448C343.48 130.607 351.056 127.911 351.056 127.234C351.056 124.503 360.522 129.732 360.522 130.505C360.522 132.335 368.57 122.996 368.57 125.555C368.57 129.314 376.96 124.646 376.96 123.975C376.96 123.382 384.194 120.463 384.194 120.024C384.194 121.854 392.193 118.531 392.193 118.444C392.193 118.118 400.804 114.975 400.804 120.497C400.804 120.03 408.425 115.042 408.425 115.091C408.425 116.021 416.51 119.318 416.51 118.304C416.51 118.728 424.431 119.083 424.431 119.318C424.431 120.027 433 119.338 433 119.086C433 118.693 440.024 128.181 440.024 123.919C440.024 121.889 447.832 129.061 447.832 127.74C447.832 127.371 456.935 123.58 457.348 123.969C458.248 123.039 463.917 124.213 464.882 123.211C466.439 125.331 473.042 122.086 473.68 121.198C474.502 127.24 480.483 120.994 481.612 118.415C483.049 120.837 485.694 121.279 487 120.965V27H-12Z" fill="white"/>
<path d="M0.0388794 -0.175079V96.8455C1.52644 97.5591 2.84831 99.1593 2.96357 102.021C2.90234 102.245 9.91151 100.093 10.4194 99.7144C9.14792 99.6531 19.053 98.2079 17.6771 97.0221C18.1309 97.0761 24.7728 95.8976 24.9637 94.6073C26.9555 98.0493 34.3465 102.057 32.6861 95.6489C33.745 97.6708 39.3999 94.4343 40.005 95.2308C39.5908 93.2017 47.2303 94.1135 47.5689 95.4867C46.5388 92.0123 54.7906 96.4022 54.7906 92.3799C54.7906 94.6037 62.7759 98.8097 62.7759 97.6132C62.7759 94.4992 69.6554 86.5195 69.6554 90.7436C69.6554 91.2122 77.5075 96.9103 77.5075 94.4847C77.5075 93.7351 83.5802 99.3504 83.5802 90.5093C83.5802 87.3016 90.0131 88.9091 90.0131 91.9762C90.0131 92.8521 95.6716 99.1666 95.6716 95.202C95.6716 94.3694 104.1 92.0988 104.1 97.5267C104.1 101.769 112.572 100.731 112.572 100.99C112.572 102.392 120.571 102.904 120.571 103.78C120.571 102.637 128.369 98.4818 128.369 100.969C128.369 100.742 135.638 100.76 135.638 97.1699C135.638 95.5696 143.223 99.8117 143.223 96.6436C143.223 95.7354 150.722 95.7678 150.722 93.8612C150.722 96.5896 158.301 97.7898 158.301 98.7845C158.301 95.6705 166.102 88.8298 166.102 94.0378C166.102 96.449 172.982 101.498 172.982 101.307C172.982 96.9644 180.6 105.823 180.6 100.435C180.6 98.9539 187.94 101.772 187.94 101.841C187.94 98.0961 194.733 104.068 194.733 105.867C194.733 111.1 202.719 103.38 202.719 104.303C202.719 105.268 210.138 99.8694 210.138 105.524C210.138 108.202 216.409 116.337 216.409 111.262C216.409 114.639 223.793 112.073 223.793 112.592C223.793 110.844 232.326 113.655 232.326 109.647C232.326 111.212 238.906 112.423 238.906 114.131C238.906 111.612 246.766 116.921 246.766 113.655C246.766 115.097 254.236 113.944 254.236 114.564C254.236 114.153 261.09 115.284 261.09 118.175C261.09 116.351 268.272 119.238 268.272 119.667C268.272 119.793 275.109 121.548 275.109 123.268C275.109 120.629 282.377 126.472 282.377 124.623C282.377 122.972 289.707 122.659 289.707 125.596C289.707 125.156 297.339 125.358 297.339 123.538C297.339 125.073 304.615 123.603 304.615 124.518C304.615 126.428 311.779 125.657 311.779 127.892C311.779 128.541 319.141 128.876 319.141 129.2C319.141 133.078 326.597 122.918 326.597 126.072C326.597 124.684 333.988 128.465 333.988 129.344C333.988 130.79 341.289 121.127 341.289 125.69C341.289 128.368 348.561 125.023 348.561 124.183C348.561 120.795 357.649 127.283 357.649 128.241C357.649 130.512 365.375 118.925 365.375 122.1C365.375 126.764 373.428 120.972 373.428 120.139C373.428 119.404 380.373 115.782 380.373 115.238C380.373 117.508 388.052 113.385 388.052 113.277C388.052 112.873 396.318 108.973 396.318 115.825C396.318 115.245 403.634 109.056 403.634 109.118C403.634 110.271 411.396 114.362 411.396 113.104C411.396 113.63 418.999 114.07 418.999 114.362C418.999 115.241 427.226 114.387 427.226 114.073C427.226 113.587 433.968 125.358 433.968 120.071C433.968 117.551 441.464 126.45 441.464 124.81C441.464 124.356 450.202 119.649 450.598 120.132C451.463 118.979 456.905 120.435 457.831 119.191C459.325 121.822 465.665 117.797 466.277 116.694C467.066 124.19 472.807 116.441 473.891 113.241C475.271 116.247 477.81 116.795 479.064 116.405V-0.175079H0.0388794Z" fill="#FFCEAB"/>
</g>
</svg>
