<svg width="430" height="129" viewBox="0 0 430 129" fill="none" xmlns="http://www.w3.org/2000/svg">
<mask id="mask0_3_37" style="mask-type:alpha" maskUnits="userSpaceOnUse" x="0" y="0" width="430" height="129">
<rect width="430" height="129" fill="#D9D9D9"/>
</mask>
<g mask="url(#mask0_3_37)">
<path d="M457 14V84.2447L456.034 84.1374L451.147 84.7812L446.248 84.7389L441.502 85.5844L435.548 84.4853L433.003 88.7287L428.698 88.6506L423.252 88.1401L417.055 88.6994L411.597 89.6944L406.417 88.8717L401.049 89.844L396.037 86.5338L390.599 89.405L385.41 87.6979L380.16 85.9453L374.858 85.3568L369.576 86.277L364.427 89.3985L359.106 88.2377L353.711 86.6249L348.46 87.2622L343.077 86.5143L338.342 88.6832L333.385 88.7287L328.396 90.1692L323.552 90.0976L318.634 89.4765L313.833 90.2244L311.111 93.2582L307.89 95.6774L303.957 98.0413L297.236 96.7959L292.13 98.2559L287.067 101.608L282.043 102.584L276.703 102.424L272.805 104.499L268.95 106.437L264.637 107.221L258.757 107.991L253.53 110.076L248.553 112.501L243.123 114.777L237.798 112.085L232.938 113.607L227.883 112.836L222.937 113.509L217.976 112.537L212.854 116L208.057 113.415L203.096 113.181L197.239 108.528L190.878 111.721L184.814 109.272L180.38 110.947L175.869 111.269L171.251 109.302L166.892 109.354L161.575 110.225L155.449 111.363L150.476 109.103L145.768 106.7L141.151 104.333L138.207 99.7679L133.257 97.8072L127.151 98.4217L123.421 94.445L118.291 94.1914L113.099 95.1896L108.333 92.4843L103.239 94.0093L98.2153 91.7104L93.2383 93.5898L88.2339 93.6744L83.1514 92.4095L78.1979 93.1281L73.3069 95.5376L68.2673 92.5721L63.4038 92.7054L58.5362 96.0806L53.6647 94.0451L48.8051 95.3457L43.9649 96.5878L38.9919 92.6046L34.1127 93.3297L29.3506 95.453L24.5144 95.8855L19.0292 95.8205L14.0601 97.6706L8.46919 97.9307L3.99662 100.945L-0.874816 101.891L-5.87141 100.301L-10 100.379V14H457Z" fill="white"/>
<path d="M430.102 -0.175079V77.6857L429.212 77.5668L424.71 78.2804L420.196 78.2336L415.824 79.1706L410.338 77.9524L407.993 82.6559L404.028 82.5694L399.01 82.0035L393.302 82.6234L388.273 83.7263L383.501 82.8145L378.556 83.8921L373.938 80.2231L368.928 83.4055L364.148 81.5134L359.311 79.5707L354.427 78.9184L349.561 79.9383L344.817 83.3983L339.915 82.1116L334.944 80.324L330.107 81.0304L325.147 80.2014L320.785 82.6054L316.218 82.6559L311.622 84.2525L307.16 84.1732L302.628 83.4848L298.205 84.3138L295.698 87.6765L292.731 90.358L289.107 92.9782L282.916 91.5978L278.212 93.2161L273.547 96.932L268.919 98.0132L263.999 97.8366L260.408 100.136L256.856 102.284L252.883 103.153L247.466 104.007L242.65 106.317L238.065 109.006L233.062 111.529L228.157 108.545L223.679 110.228L219.022 109.377L214.466 110.123L209.895 109.046L205.177 112.884L200.757 110.019L196.187 109.759L190.791 104.602L184.931 108.141L179.344 105.427L175.26 107.283L171.103 107.64L166.849 105.459L162.833 105.517L157.935 106.483L152.291 107.744L147.709 105.24L143.373 102.58L139.119 99.9523L136.407 94.892L131.847 92.7187L126.221 93.3999L122.784 88.992L118.059 88.7109L113.276 89.8174L108.885 86.8187L104.192 88.5054L99.5633 85.9609L94.9781 88.0441L90.3677 88.1378L85.6853 86.7394L81.1218 87.5323L76.6159 90.203L71.9731 86.9196L67.4924 87.0638L63.008 90.8049L58.5201 88.5487L54.0431 89.9904L49.584 91.3671L45.0024 86.952L40.5073 87.7558L36.1202 90.1093L31.6647 90.5887L26.6114 90.5166L22.0334 92.5673L16.8827 92.8557L12.7622 96.1967L8.27433 97.2456L3.67111 95.4831L-0.132446 95.5696V-0.175079H430.102Z" fill="#FFCEAB"/>
</g>
</svg>
