<svg width="491" height="50" viewBox="0 0 491 50" fill="none" xmlns="http://www.w3.org/2000/svg">
<mask id="mask0_3_38" style="mask-type:alpha" maskUnits="userSpaceOnUse" x="0" y="0" width="491" height="50">
<rect width="491" height="50" fill="#D9D9D9"/>
</mask>
<g mask="url(#mask0_3_38)">
<path d="M-12 -46V43.1C-10.7271 42.547 -9.56254 41.8715 -9.22286 41.0734C-4.78467 41.0388 0.000669479 41.8338 -3.06015 40.0083C-2.3584 38.8678 1.76997 39.2354 3.72218 39.3768C5.17794 40.2282 8.73148 41.6421 9.70945 41.3059C11.057 43.6278 14.5732 38.2802 15.3944 37.3156C15.3384 38.0477 21.1838 40.621 22.0162 39.9831C19.1719 38.8206 22.0199 37.5732 28.1266 36.5804C26.7679 34.3559 31.4786 37.3942 34.4163 37.0517C34.9165 39.361 39.9817 34.8146 41.0082 36.5081C42.8149 34.8837 47.9361 32.2508 47.5927 34.491C48.9029 35.0283 52.7961 36.5898 54.2332 35.2356C52.729 36.2976 60.8551 40.2722 60.8551 38.3619C60.8551 36.5395 67.4321 34.1517 67.4321 38.7672C67.4321 34.3685 73.9718 39.5747 73.9718 39.537C73.9718 39.1537 80.7355 36.4987 80.7355 37.1774C80.7355 39.8857 87.0475 42.2642 87.0475 40.1591C87.0475 38.1765 93.7514 39.7129 93.7514 39.4836C93.7514 36.3039 100.302 38.1734 100.302 40.1497C100.302 41.4033 107.436 42.4245 107.436 38.6541C107.436 37.9189 113.397 40.1654 113.397 41.8558C113.397 42.6381 119.029 48.0235 119.029 46.0629C119.029 46.0849 125.968 47.5239 125.968 46.509C125.968 48.6204 132.62 49.4248 132.62 48.7869C132.62 50.248 139.507 43.5462 139.507 44.0489C139.507 44.495 145.946 44.0771 145.946 44.3254C145.946 43.7221 153.117 44.539 153.117 45.1674C153.117 41.1991 156.282 37.435 156.282 38.9117C156.282 42.1794 162.258 37.9283 162.258 37.0046C162.258 38.3587 168.76 36.4578 168.76 37.4947C168.76 40.7184 175.139 36.3636 175.139 38.5724C175.139 40.3382 181.597 38.6164 181.597 37.5858C181.597 37.8623 187.875 34.7863 187.875 35.7132C187.875 34.0008 194.609 37.124 194.609 36.5615C194.609 36.3887 200.567 32.4676 200.567 31.3459C200.567 31.1102 207.364 35.9457 207.364 33.0048C207.364 30.8526 213.971 34.2616 213.971 32.9043C213.971 31.7072 220.828 36.1814 220.828 31.0757C220.828 31.6192 226.935 35.7101 226.935 34.9183C226.935 35.7006 233.799 37.0737 233.799 38.4122C233.799 37.369 241.847 40.3068 241.847 38.142C241.847 42.0411 249.376 43.3325 249.376 39.7412C249.376 41.0577 256.367 39.5276 256.367 38.607C256.367 40.2816 262.981 39.1442 262.981 39.0877C262.981 41.441 269.711 40.8912 269.711 41.108C269.711 38.3776 276.199 38.8897 276.199 37.7869C276.199 38.4844 283.351 42.8989 283.351 40.8598C283.351 41.4913 290.077 40.9634 290.077 40.0177C290.077 36.329 296.561 38.3839 296.561 38.1011C296.561 37.6864 302.477 33.5515 302.477 33.8752C302.477 33.1619 309.278 35.6535 309.278 33.6112C309.278 33.5861 316.945 40.5079 316.945 37.2559C316.945 36.7281 322.57 29.7812 322.57 31.3867C322.57 32.5084 329.192 31.4496 329.192 29.8315C329.192 28.2479 336.187 29.7215 336.187 29.4167C336.187 27.189 343.313 31.4558 343.313 30.7897C343.313 30.1833 350.331 31.2642 350.331 32.5021C350.331 31.7983 357.143 31.3836 357.143 30.4316C357.143 29.9854 364.056 32.2005 364.056 31.8989C364.056 31.3082 370.98 34.4376 370.98 29.7341C370.98 30.287 377.762 30.7238 377.762 33.5484C377.762 35.3959 384.836 29.8849 384.836 29.5581C384.836 25.2536 391.577 30.7615 391.577 32.6404C391.577 29.7058 398.561 33.7935 398.561 31.3836C398.561 31.9931 405.31 36.2002 405.31 33.806C405.31 32.0968 411.883 32.4801 411.883 32.854C411.883 31.6318 418.565 30.3813 418.565 30.2964C418.565 24.4021 425.067 28.8323 425.067 30.397C425.067 32.1471 431.248 36.1437 431.248 35.3173C431.248 38.9746 437.878 36.1688 437.878 33.5296C437.878 36.549 444.488 30.507 444.488 31.9806C444.488 33.2499 450.912 34.5978 450.912 33.2405C450.912 34.7612 457.997 33.5358 457.415 33.341C456.985 32.1942 465.011 33.407 464.51 33.894C461.782 34.2271 470.319 36.2348 471.379 35.5624C472.943 38.299 479.688 37.9409 478.389 36.0871C479.486 34.5727 486.466 38.2017 485.343 38.984C486.974 39.1977 490.737 39.7035 492.655 38.3336C492.916 38.7609 495.134 37.8969 497 36.9229V-46H-12Z" fill="white"/>
<path d="M-0.323364 -63.2204V38.9866C0.904867 38.3522 2.02865 37.5773 2.35642 36.6619C6.63902 36.6222 11.2566 37.5341 8.30307 35.4437C8.98022 34.1354 12.9639 34.557 14.8476 34.7192C16.2524 35.6959 19.6813 37.3178 20.625 36.9322C21.9253 39.5957 25.3182 33.4614 26.1106 32.3549C26.0566 33.1947 31.6971 36.1465 32.5003 35.4148C29.7557 34.0813 32.5039 32.6504 38.3965 31.5115C37.0855 28.9598 41.631 32.445 44.4657 32.0521C44.9483 34.7012 49.836 29.486 50.8265 31.4286C52.5698 29.5653 57.5116 26.545 57.1802 29.1148C58.4445 29.7311 62.2012 31.5223 63.5879 29.9689C62.1363 31.1872 69.9776 35.7464 69.9776 33.5551C69.9776 31.4647 76.3241 28.7255 76.3241 34.02C76.3241 28.9742 82.6345 34.9463 82.6345 34.903C82.6345 34.4633 89.161 31.4178 89.161 32.1963C89.161 35.3031 95.2518 38.0314 95.2518 35.6167C95.2518 33.3424 101.721 35.1049 101.721 34.8418C101.721 31.1944 108.042 33.3388 108.042 35.6059C108.042 37.0439 114.925 38.2153 114.925 33.8903C114.925 33.0469 120.677 35.6239 120.677 37.5593C120.677 38.4567 126.112 44.6343 126.112 42.3853C126.112 42.4105 132.808 44.0612 132.808 42.8971C132.808 45.3191 139.227 46.2417 139.227 45.5101C139.227 47.186 145.872 39.4983 145.872 40.075C145.872 40.5868 152.085 40.1075 152.085 40.3922C152.085 39.7002 159.005 40.6373 159.005 41.3581C159.005 36.806 162.059 32.4883 162.059 34.1822C162.059 37.9305 167.825 33.0541 167.825 31.9945C167.825 33.5479 174.1 31.3673 174.1 32.5567C174.1 36.2546 180.255 31.2592 180.255 33.793C180.255 35.8185 186.487 33.8434 186.487 32.6612C186.487 32.9784 192.545 29.4499 192.545 30.5132C192.545 28.5489 199.043 32.1314 199.043 31.4863C199.043 31.2881 204.791 26.7864 204.791 25.5034C204.791 25.233 211.35 30.7799 211.35 27.4064C211.35 24.9375 217.726 28.848 217.726 27.291C217.726 25.9178 224.342 31.0502 224.342 25.1934C224.342 25.8169 230.235 30.5096 230.235 29.6013C230.235 30.4987 236.859 32.0738 236.859 33.6091C236.859 32.4126 244.624 35.7825 244.624 33.2992C244.624 37.772 251.889 39.2533 251.889 35.1337C251.889 36.6439 258.635 34.8886 258.635 33.8326C258.635 35.7536 265.018 34.4489 265.018 34.384C265.018 37.0836 271.512 36.4528 271.512 36.7015C271.512 33.5695 277.772 34.157 277.772 32.8919C277.772 33.692 284.673 38.7559 284.673 36.4168C284.673 37.1412 291.164 36.5357 291.164 35.4509C291.164 31.2196 297.42 33.5767 297.42 33.2523C297.42 32.7766 303.129 28.0335 303.129 28.4047C303.129 27.5866 309.692 30.4447 309.692 28.102C309.692 28.0731 317.09 36.0131 317.09 32.2828C317.09 31.6773 322.518 23.7085 322.518 25.5502C322.518 26.8405 328.908 25.6223 328.908 23.7662C328.908 21.9497 335.657 23.64 335.657 23.2904C335.657 20.7351 342.533 25.6295 342.533 24.8654C342.533 24.1698 349.305 25.4097 349.305 26.8297C349.305 26.0224 355.878 25.5466 355.878 24.4546C355.878 23.9428 362.549 26.4837 362.549 26.1377C362.549 25.4601 369.23 29.0499 369.23 23.6544C369.23 24.2888 375.775 24.7897 375.775 28.0299C375.775 30.1491 382.6 23.8274 382.6 23.449C382.6 18.5113 389.105 24.8294 389.105 26.9847C389.105 23.6184 395.844 28.3074 395.844 25.543C395.844 26.2422 402.357 31.0646 402.357 28.3218C402.357 26.3612 408.699 26.8009 408.699 27.2298C408.699 25.8278 415.147 24.3933 415.147 24.296C415.147 17.5346 421.421 22.6164 421.421 24.4113C421.421 26.4188 427.386 31.0033 427.386 30.0554C427.386 34.2507 433.783 31.0322 433.783 28.0047C433.783 31.4683 440.161 24.5375 440.161 26.2278C440.161 27.6875 446.36 29.2301 446.36 27.6731C446.36 29.4175 453.197 28.0119 452.635 27.7884C452.22 26.4729 459.964 27.8641 459.482 28.4228C456.849 28.8048 465.086 31.1079 466.109 30.3366C467.618 33.4758 474.127 33.0649 472.874 30.9385C473.932 29.2012 480.668 33.3641 479.584 34.2615C481.158 34.5066 484.788 35.0868 486.64 33.5154C486.892 34.0056 489.031 33.0145 490.832 31.8972V-63.2204H-0.323364Z" fill="#f5ebde"/>
</g>
</svg>
