<svg width="481" height="142" viewBox="0 0 481 142" fill="none" xmlns="http://www.w3.org/2000/svg">
<mask id="mask0_3_39" style="mask-type:alpha" maskUnits="userSpaceOnUse" x="0" y="0" width="481" height="142">
<rect width="481" height="142" fill="#D9D9D9"/>
</mask>
<g mask="url(#mask0_3_39)">
<path d="M496 112.294V29H-3V128.761C-0.581275 126.545 3.59173 128.43 4.17029 130.195C2.7295 127.707 12.591 125.846 11.628 129.33C12.0759 132.722 19.5076 129.687 19.0485 128.119C20.478 128.346 25.6551 128.523 26.4465 127.097C25.8119 130.253 34.2812 125.782 33.5645 123.456C34.8373 124.545 40.3616 124.359 40.9439 123.63C39.9921 127.013 48.8234 127.225 48.8234 124.542C48.8234 125.442 57.6883 119.576 57.6883 120.779C57.6883 120.779 65.803 123.647 65.803 125.329C65.803 128.383 75.5115 126.182 75.5115 125.282C75.5115 124.963 84.0367 128.775 84.0367 127.884C84.0367 126.052 88.8817 135.503 88.8817 134.995C88.8817 137.034 96.6492 129.957 96.6492 132.399C96.6492 129.861 104.727 135.62 104.727 136C104.727 134.897 112.02 133.456 112.02 134.275C112.02 133.064 117.57 130.117 117.57 128.05C117.57 130.857 125.345 128.296 125.345 127.637C125.345 124.597 132.348 124.35 132.348 125.204C132.348 128.296 141.369 126.482 141.369 128.055C141.369 127.838 147.274 124.217 147.274 122.756C147.274 122.898 155.053 121.075 155.053 122.358C155.053 122.454 163.369 120.561 163.369 123.363C163.369 125.053 168.55 118.366 168.55 116.176C168.55 117.059 176.669 116.359 176.669 117.082C176.669 118.647 185.022 115.192 185.022 114.739C185.022 117.332 189.46 121.743 189.46 120.924C189.46 120.793 196.955 119.155 196.955 121.455C196.955 120.587 203.073 123.16 203.073 125.494C203.073 123.328 210.501 126.389 210.501 124.966C210.501 127.928 216.167 115.68 216.167 119.809C216.167 119.669 224.009 121.789 224.009 121.667C224.009 123.157 230.176 115.624 230.176 117.259C230.176 118.731 238.481 121.92 238.481 121.313C238.481 121.728 244.736 112.593 244.736 115.331C244.736 119.141 252.157 112.869 252.157 115.729C252.157 114.733 259.503 117.979 259.503 116.043C259.503 116.67 266.904 118.197 266.904 117.265C266.904 118.9 274.825 111.913 274.825 114.155C274.825 112.509 282.898 112.256 282.898 112.703C282.898 111.028 291.457 115.897 291.457 116.554C291.457 116.353 299.583 112.515 299.583 115.671C299.583 117.965 307.575 111.158 307.575 113.348C307.575 114.356 316.007 119.138 316.007 115.839C316.007 120.596 323.714 111.664 323.714 110.392C323.714 108.083 331.579 111.365 331.579 112.726C331.579 109.77 339.332 108.772 339.332 113.993C339.332 116.043 346.737 110.671 346.737 110.993C346.737 111.048 354.497 111.414 354.497 112.758C354.497 112.927 362.082 115.079 362.082 112.105C362.082 113.682 369.603 110.032 369.603 108.02C369.603 107.947 377.307 111.678 377.307 111.066C377.307 112.988 384.866 111.818 384.866 113.45C384.866 111.388 392.454 113.374 392.454 113.06C392.454 111.037 400.061 111.156 400.061 112.88C400.061 111.251 407.53 111.797 407.53 113.993C407.53 114.948 415.365 110.514 415.365 112.846C415.365 113.386 422.834 110.726 422.834 114.178C422.834 114.446 430.642 114.968 430.642 113.963C430.642 114.228 438.167 113.926 438.167 114.939C438.167 108.705 445.998 115.215 445.998 113.775C445.998 114.954 453.042 119.463 453.042 119.028C453.042 122.933 460.372 116.179 461.119 114.326C461.231 110.874 471.522 118.29 469.293 118.554C470.846 117.677 475.008 118.807 477.165 116.856C475.284 117.044 484.168 113.412 484.638 114.161C485.978 112.848 492.391 114.594 492.547 113.391C491.797 113.02 493.805 112.567 496 112.294Z" fill="white"/>
<path d="M481.317 103.179V-0.206299H-0.203735V123.618C2.13026 120.868 6.1571 123.208 6.71539 125.399C5.32507 122.31 14.8412 120 13.9119 124.325C14.3441 128.535 21.5154 124.768 21.0724 122.822C22.4519 123.103 27.4477 123.323 28.2112 121.553C27.5989 125.471 35.7715 119.921 35.08 117.034C36.3082 118.385 41.639 118.155 42.2008 117.25C41.2824 121.449 49.8043 121.712 49.8043 118.382C49.8043 119.499 58.3587 112.218 58.3587 113.711C58.3587 113.711 66.1892 117.272 66.1892 119.358C66.1892 123.15 75.5576 120.418 75.5576 119.301C75.5576 118.904 83.7842 123.636 83.7842 122.53C83.7842 120.256 88.4594 131.987 88.4594 131.357C88.4594 133.887 95.9549 125.103 95.9549 128.134C95.9549 124.984 103.749 132.131 103.749 132.604C103.749 131.234 110.787 129.446 110.787 130.463C110.787 128.96 116.143 125.302 116.143 122.735C116.143 126.221 123.646 123.042 123.646 122.227C123.646 118.454 130.403 118.147 130.403 119.207C130.403 123.045 139.109 120.793 139.109 122.746C139.109 122.476 144.807 117.982 144.807 116.169C144.807 116.345 152.313 114.078 152.313 115.675C152.313 115.794 160.338 113.444 160.338 116.922C160.338 119.02 165.337 110.716 165.337 108.002C165.337 109.097 173.171 108.229 173.171 109.126C173.171 111.069 181.232 106.78 181.232 106.218C181.232 109.436 185.515 114.911 185.515 113.894C185.515 113.732 192.747 111.699 192.747 114.554C192.747 113.476 198.651 116.67 198.651 119.567C198.651 116.879 205.819 120.677 205.819 118.911C205.819 122.588 211.286 107.385 211.286 112.51C211.286 112.337 218.854 114.968 218.854 114.817C218.854 116.666 224.804 107.317 224.804 109.346C224.804 111.173 232.818 115.131 232.818 114.377C232.818 114.893 238.855 103.554 238.855 106.953C238.855 111.681 246.015 103.896 246.015 107.447C246.015 106.21 253.104 110.24 253.104 107.836C253.104 108.614 260.246 110.51 260.246 109.353C260.246 111.382 267.889 102.711 267.889 105.493C267.889 103.45 275.68 103.136 275.68 103.691C275.68 101.611 283.939 107.656 283.939 108.47C283.939 108.221 291.78 103.457 291.78 107.374C291.78 110.222 299.492 101.774 299.492 104.491C299.492 105.742 307.629 111.678 307.629 107.584C307.629 113.487 315.066 102.401 315.066 100.822C315.066 97.9568 322.655 102.029 322.655 103.72C322.655 100.051 330.136 98.811 330.136 105.291C330.136 107.836 337.283 101.164 337.283 101.568C337.283 101.637 344.771 102.091 344.771 103.759C344.771 103.969 352.09 106.639 352.09 102.949C352.09 104.906 359.347 100.375 359.347 97.8775C359.347 97.7874 366.782 102.419 366.782 101.658C366.782 104.044 374.075 102.592 374.075 104.617C374.075 102.058 381.398 104.524 381.398 104.131C381.398 101.619 388.739 101.766 388.739 103.907C388.739 101.885 395.946 102.563 395.946 105.288C395.946 106.473 403.506 100.97 403.506 103.864C403.506 104.534 410.713 101.233 410.713 105.518C410.713 105.85 418.249 106.499 418.249 105.252C418.249 105.58 425.51 105.205 425.51 106.463C425.51 98.7245 433.067 106.805 433.067 105.017C433.067 106.481 439.863 112.078 439.863 111.537C439.863 116.385 446.937 108.002 447.658 105.702C447.766 101.417 457.696 110.622 455.546 110.95C457.044 109.861 461.06 111.263 463.142 108.841C461.327 109.076 469.899 104.567 470.353 105.497C471.646 103.868 477.834 106.034 477.985 104.542C477.261 104.08 479.199 103.518 481.317 103.179Z" fill="#FFCEAB"/>
</g>
</svg>
