<svg width="436" height="142" viewBox="0 0 436 142" fill="none" xmlns="http://www.w3.org/2000/svg">
<mask id="mask0_3_40" style="mask-type:alpha" maskUnits="userSpaceOnUse" x="0" y="0" width="436" height="142">
<rect width="436" height="142" fill="#D9D9D9"/>
</mask>
<g mask="url(#mask0_3_40)">
<path d="M-10 24V96.3679L-5.20757 96.8589L-1.00234 92.5916L6.39168 92.9458L8.51118 88.2559L11.5907 83.8696L17.0685 85.0064L21.8007 81.7955L26.4238 84.6761L31.7208 85.6105L36.5622 83.5274L41.5618 81.9622L47.2127 83.3132L52.3968 82.837L57.257 80.0577L62.5088 79.403L67.8359 80.0547L73.1329 79.2513L78.5955 77.9627L84.1636 79.3554L89.7768 80.2987L95.375 81.2867L101.384 79.6708L107.095 80.3761L112.798 81.2569L118.091 83.4352L123.317 85.4171L128.045 86.9258L133.147 87.8542L136.294 91.9578L142.287 90.1872L146.654 92.6779L151.741 94.8949L157.824 92.2465L163.423 93.0916L166.6 98.4807L171.912 99.3705L176.938 101.159L180.458 104.709L186.154 105.819L191.504 106.298L195.924 109.994L201.364 111.878L207.041 109.634L212.485 110.354L218.102 111.092L222.405 113.97L225.834 117.892L232.332 117.085L235.924 121.076L241.748 121.079L247.109 121.873L252.154 123.486L257.658 123.671L261.995 128.366L268.289 125.078L273.059 129.018L278.932 126.611L284.293 127.301L289.47 130.396L295.147 127.673L300.519 129.161L305.974 129.456L311.46 127.994L316.9 130.625L322.37 129.223L327.847 130.75L333.288 127.759L338.758 128.179L344.04 129.932L349.363 131L354.528 128.95L359.693 127.866L365.171 129.622L370.001 126.423L375.795 129.131L380.889 127.768L386.148 127.134L390.301 123.147L395.793 122.406L401.956 124.48L407.298 123.757L412.78 123.813L417.727 120.237L423.269 120.403L428.882 121.832L434.167 119.097L439.713 120.192L445.168 119.627L446 119.475V24H-10Z" fill="white"/>
<path d="M-0.303589 0.0640259V87.7138L4.2815 88.3085L8.30478 83.1401L15.3789 83.569L17.4067 77.8888L20.353 72.5762L25.5937 73.953L30.1212 70.0641L34.5443 73.553L39.6121 74.6847L44.244 72.1618L49.0273 70.266L54.4337 71.9023L59.3935 71.3256L64.0435 67.9593L69.068 67.1664L74.1647 67.9557L79.2325 66.9826L84.4588 65.422L89.7859 67.1087L95.1563 68.2513L100.512 69.4478L106.261 67.4908L111.725 68.345L117.182 69.4118L122.246 72.05L127.245 74.4504L131.769 76.2777L136.65 77.4022L139.661 82.3724L145.395 80.2279L149.573 83.2446L154.439 85.9261L160.26 82.722L165.616 83.7456L168.656 90.2727L173.738 91.3503L178.546 93.5165L181.914 97.8162L187.364 99.1606L192.482 99.7409L196.71 104.217L201.915 106.499L207.347 103.781L212.555 104.653L217.929 105.547L222.046 109.032L225.327 113.783L231.544 112.806L234.98 117.639L240.552 117.643L245.681 118.609L250.508 120.559L255.774 120.782L259.923 126.469L265.945 122.487L270.509 127.259L276.128 124.343L281.257 125.179L286.209 128.927L291.641 125.63L296.781 127.432L302 127.788L307.248 126.019L312.452 129.205L317.686 127.507L322.927 129.356L328.131 125.734L333.365 126.242L338.418 128.365L343.511 129.659L348.453 127.176L353.395 125.864L358.635 127.99L363.256 124.116L368.8 127.396L373.673 125.745L378.705 124.977L382.678 120.148L387.933 119.25L393.829 121.762L398.94 120.886L404.184 120.955L408.917 116.623L414.219 116.825L419.589 118.555L424.646 115.242L429.952 116.569L435.171 115.884L435.967 115.7V0.0640259H-0.303589Z" fill="#FFCEAB"/>
</g>
</svg>
