<svg width="474" height="50" viewBox="0 0 474 50" fill="none" xmlns="http://www.w3.org/2000/svg">
<mask id="mask0_3_41" style="mask-type:alpha" maskUnits="userSpaceOnUse" x="0" y="0" width="474" height="50">
<rect width="474" height="50" fill="#D9D9D9"/>
</mask>
<g mask="url(#mask0_3_41)">
<path d="M480 -78H-7V37.5314L-4.48488 39.0482L2.22334 37.8782L7.54621 33.2429L14.3545 32.1035L20.4848 30.4201L27.019 34.008L33.0012 32.6001L39.2316 29.9576L45.1249 33.9026L51.3219 32.0151L57.3634 31.59L63.4493 31.8519L68.6611 29.087L74.6951 29.427L80.0032 26.4513L86.3151 30.3487L91.9046 28.5973L98.5721 28.5598L104.462 31.2703L109.144 35.5486L115.282 37.3885L121.608 39.0414L128.205 39.2692L134.828 38.3408L141.574 37.2967L148.252 39.6161L154.36 36.7355L161.283 37.9973L167.314 35.4194L173.303 32.9572L179.445 31.0085L185.598 29.0325L191.917 27.5056L199.088 29.7807L205.096 27.2573L210.823 25.3052L216.842 25.2032L222.561 23.1967L228.647 23.6796L234.559 22.9416L240.582 24.9515L246.372 24.2679L252.302 23.4109L258.492 25.9105L265.481 27.2981L271.478 30.9098L278.624 29.0257L284.839 34.3991L291.573 33.6102L297.782 32.3314L303.649 33.9332L309.779 31.9369L315.743 31.5322L321.673 32.3824L327.685 34.5692L333.793 36.3207L339.542 32.0763L345.765 34.3991L351.881 34.7971L357.555 31.8621L363.149 28.9373L369.731 31.9505L375.858 31.9539L379.988 24.9889L386.3 25.9378L392.345 28.6755L397.753 27.7504L404.328 25.6521L408.962 30.614L414.311 33.5251L421.185 33.0048L426.223 36.739L433.32 35.3276L438.113 40.0718L444.207 41.2247L450.593 40.4187L456.542 42.3028L462.916 40.9866L469.462 42.3402L475.877 43L480 42.5137V-69.1679L479.985 -69.2189L480 -69.2631V-78Z" fill="white"/>
<path d="M474.037 -88.3146H0.486755V34.1225L2.93241 35.73L9.45537 34.4938L14.6312 29.5777L21.2514 28.3703L27.2125 26.5862L33.5662 30.3886L39.3832 28.8965L45.4415 26.0961L51.172 30.2769L57.1979 28.2766L63.0725 27.8261L68.9904 28.1L74.0582 25.1734L79.9256 25.5338L85.0871 22.3802L91.2246 26.5105L96.6598 24.6544L103.143 24.6147L108.87 27.4873L113.423 32.0213L119.391 33.9712L125.543 35.7228L131.958 35.9643L138.398 34.9804L144.957 33.8739L151.451 36.3319L157.391 33.2792L164.122 34.6163L169.986 31.8843L175.81 29.2749L181.782 27.2134L187.765 25.1158L193.91 23.4975L200.883 25.9087L206.725 23.2344L212.294 21.1656L218.147 21.0574L223.708 18.931L229.626 19.4428L235.374 18.6607L241.231 20.7908L246.861 20.0663L252.627 19.1581L258.646 21.8071L265.443 23.2776L271.274 27.1053L278.222 25.1085L284.266 30.8031L290.814 29.9669L296.851 28.6118L302.556 30.3093L308.517 28.1937L314.316 27.7648L320.083 28.6659L325.928 30.9833L331.868 32.8394L337.458 28.3414L343.509 30.8031L349.456 31.2248L354.974 28.1144L360.413 25.0184L366.813 28.2081L372.771 28.2117L376.787 20.8304L382.924 21.8359L388.802 24.7373L394.061 23.757L400.454 21.5332L404.96 26.7917L410.161 29.8769L416.846 29.3254L421.745 33.2828L428.646 31.7906L433.307 36.8149L439.232 38.0367L445.442 37.1825L451.226 39.1792L457.425 37.7844L463.789 39.2188L470.028 39.918L474.037 39.4026V-78.9546L474.022 -79.0086L474.037 -79.0555V-88.3146Z" fill="#f8f0e6"/>
</g>
</svg>
