<svg width="60" height="480" viewBox="0 0 60 480" fill="none" xmlns="http://www.w3.org/2000/svg">
<mask id="mask0_26_22" style="mask-type:alpha" maskUnits="userSpaceOnUse" x="0" y="0" width="60" height="480">
<rect x="60" width="480" height="60" transform="rotate(90 60 0)" fill="#D9D9D9"/>
</mask>
<g mask="url(#mask0_26_22)">
<path d="M132 -9L7.11692 -9L7.00001 -7.96673L7.71755 -2.748L7.66885 2.48947L8.61036 7.56225L7.38637 13.9228L12.1135 16.6407L12.0291 21.2418L11.4577 27.0595L12.0811 33.6821L13.1914 39.5111L12.2726 45.0518L13.357 50.7835L9.66879 56.1407L12.8668 61.9547L10.9674 67.4954L9.01298 73.1035L8.35711 78.7715L9.38309 84.4133L12.8603 89.9165L11.5681 95.6032L9.76946 101.369L10.4772 106.977L9.64605 112.731L12.0616 117.788L12.1136 123.086L13.7174 128.417L13.6394 133.594L12.9447 138.851L13.779 143.98L17.1588 146.885L19.8568 150.329L22.4899 154.533L21.1036 161.71L22.7269 167.164L26.4638 172.578L27.5514 177.946L27.3729 183.652L29.6845 187.818L31.8435 191.937L32.7136 196.541L33.574 202.823L35.8986 208.413L38.5998 213.729L41.1387 219.531L38.1388 225.222L39.8303 230.414L38.9732 235.817L39.7232 241.099L38.642 246.404L42.4991 251.873L39.6193 257.002L39.3563 262.3L34.1714 268.559L37.733 275.354L35.0058 281.838L36.8694 286.574L37.2298 291.392L35.035 296.33L35.0934 300.984L36.0642 306.666L37.3336 313.214L34.8142 318.527L32.139 323.558L29.4994 328.489L24.4151 331.637L22.2302 336.927L22.9152 343.448L18.4835 347.439L18.2011 352.92L19.3114 358.465L16.2985 363.56L17.9965 368.999L15.4381 374.368L17.529 379.688L17.6264 385.037L16.2173 390.462L17.016 395.76L19.701 400.986L16.3991 406.369L16.5452 411.565L20.3049 416.765L18.0354 421.973L19.4867 427.165L20.8698 432.339L16.4348 437.652L17.24 442.863L19.6069 447.954L20.0874 453.117L20.0159 458.98L22.0775 464.292L22.3665 470.263L25.7235 475.04L26.7788 480.248L25.0093 485.59L25.0937 490L132 490L132 -9Z" fill="white"/>
<path d="M150.329 0.220276L11.6948 0.220278L11.5615 1.21439L12.3616 6.23536L12.3076 11.2744L13.3528 16.1549L11.994 22.2744L17.2417 24.8894L17.148 29.316L16.5136 34.9133L17.2056 41.285L18.4383 46.8931L17.4183 52.2238L18.622 57.7383L14.5277 62.8925L18.0778 68.4862L15.9694 73.8169L13.7997 79.2125L13.0717 84.6657L14.2106 90.0937L18.0706 95.3885L16.6362 100.86L14.6395 106.406L15.4252 111.802L14.5025 117.338L17.184 122.204L17.2417 127.301L19.0221 132.43L18.9356 137.411L18.1643 142.468L19.0906 147.403L22.8425 150.198L25.8376 153.512L28.7606 157.556L27.2216 164.461L29.0237 169.709L33.1721 174.917L34.3795 180.082L34.1812 185.572L36.7474 189.58L39.1442 193.542L40.1137 197.973L41.0652 204.017L43.6458 209.394L46.6445 214.509L49.4629 220.092L46.1327 225.567L48.0104 230.562L47.0589 235.76L47.8915 240.842L46.6913 245.946L50.973 251.208L47.7762 256.143L47.4843 261.239L41.7284 267.262L45.6822 273.799L42.6546 280.037L44.7234 284.594L45.1235 289.229L42.6871 293.98L42.752 298.457L43.8296 303.925L45.2389 310.225L42.442 315.335L39.4722 320.176L36.542 324.92L30.8979 327.949L28.4722 333.039L29.2327 339.313L24.3131 343.153L23.9995 348.426L25.2321 353.76L21.8874 358.662L23.7724 363.896L20.9323 369.061L23.2534 374.179L23.3615 379.326L21.7974 384.545L22.6839 389.642L25.6646 394.67L21.9992 399.849L22.1614 404.849L26.335 409.852L23.8157 414.862L25.4267 419.858L26.9621 424.835L22.0388 429.946L22.9326 434.96L25.5601 439.859L26.0935 444.826L26.0142 450.466L28.3029 455.577L28.6236 461.322L32.3539 465.918L33.5217 470.928L31.5538 476.068L31.6511 480.311L150.329 480.311L150.329 0.220276Z" fill="#FFCEAB"/>
</g>
</svg>
