<svg width="480" height="150" viewBox="0 0 480 150" fill="none" xmlns="http://www.w3.org/2000/svg">
<mask id="mask0_3_42" style="mask-type:alpha" maskUnits="userSpaceOnUse" x="0" y="0" width="480" height="150">
<rect width="480" height="150" fill="#D9D9D9"/>
</mask>
<g mask="url(#mask0_3_42)">
<path d="M-9 18V142.883L-7.96673 143L-2.748 142.282L2.48947 142.331L7.56225 141.39L13.9228 142.614L16.6407 137.886L21.2418 137.971L27.0595 138.542L33.6821 137.919L39.5111 136.809L45.0518 137.727L50.7835 136.643L56.1407 140.331L61.9547 137.133L67.4954 139.033L73.1035 140.987L78.7715 141.643L84.4133 140.617L89.9165 137.14L95.6032 138.432L101.369 140.231L106.977 139.523L112.731 140.354L117.788 137.938L123.086 137.886L128.417 136.283L133.594 136.361L138.851 137.055L143.98 136.221L146.885 132.841L150.329 130.143L154.533 127.51L161.71 128.896L167.164 127.273L172.578 123.536L177.946 122.449L183.652 122.627L187.818 120.316L191.937 118.156L196.541 117.286L202.823 116.426L208.413 114.101L213.729 111.4L219.531 108.861L225.222 111.861L230.414 110.17L235.817 111.027L241.099 110.277L246.404 111.358L251.873 107.501L257.002 110.381L262.3 110.644L268.559 115.829L275.354 112.267L281.838 114.994L286.574 113.131L291.392 112.77L296.33 114.965L300.984 114.907L306.666 113.936L313.214 112.666L318.527 115.186L323.558 117.861L328.489 120.501L331.637 125.585L336.927 127.77L343.448 127.085L347.439 131.517L352.92 131.799L358.465 130.689L363.56 133.702L368.999 132.004L374.368 134.562L379.688 132.471L385.037 132.374L390.462 133.783L395.76 132.984L400.986 130.299L406.369 133.601L411.565 133.455L416.765 129.695L421.973 131.965L427.165 130.513L432.339 129.13L437.652 133.565L442.863 132.76L447.954 130.393L453.117 129.913L458.98 129.984L464.292 127.922L470.263 127.634L475.04 124.276L480.248 123.221L485.59 124.991L490 124.906V18H-9Z" fill="white"/>
<path d="M0.220276 -0.328979V138.305L1.21439 138.439L6.23536 137.639L11.2744 137.693L16.1549 136.647L22.2744 138.006L24.8894 132.758L29.316 132.852L34.9133 133.486L41.285 132.794L46.8931 131.562L52.2238 132.582L57.7383 131.378L62.8925 135.472L68.4862 131.922L73.8169 134.031L79.2125 136.2L84.6657 136.928L90.0937 135.79L95.3885 131.93L100.86 133.364L106.406 135.361L111.802 134.575L117.338 135.498L122.204 132.816L127.301 132.758L132.43 130.978L137.411 131.064L142.468 131.836L147.403 130.91L150.198 127.158L153.512 124.163L157.556 121.24L164.461 122.779L169.709 120.976L174.917 116.828L180.082 115.621L185.572 115.819L189.58 113.253L193.542 110.856L197.973 109.886L204.017 108.935L209.394 106.354L214.509 103.356L220.092 100.537L225.567 103.867L230.562 101.99L235.76 102.941L240.842 102.109L245.946 103.309L251.208 99.0271L256.143 102.224L261.239 102.516L267.262 108.272L273.799 104.318L280.037 107.346L284.594 105.277L289.229 104.877L293.98 107.313L298.457 107.248L303.925 106.171L310.224 104.761L315.335 107.558L320.176 110.528L324.92 113.458L327.949 119.102L333.039 121.528L339.313 120.767L343.153 125.687L348.426 126.001L353.76 124.768L358.662 128.113L363.896 126.228L369.061 129.068L374.179 126.747L379.326 126.639L384.545 128.203L389.642 127.316L394.67 124.336L399.849 128.001L404.849 127.839L409.852 123.665L414.862 126.184L419.858 124.573L424.835 123.038L429.946 127.961L434.96 127.068L439.859 124.44L444.826 123.907L450.466 123.986L455.577 121.697L461.322 121.376L465.918 117.646L470.928 116.478L476.068 118.446L480.311 118.349V-0.328979H0.220276Z" fill="#FFCEAB"/>
</g>
</svg>
