<svg width="60" height="440" viewBox="0 0 60 440" fill="none" xmlns="http://www.w3.org/2000/svg">
<mask id="mask0_26_18" style="mask-type:alpha" maskUnits="userSpaceOnUse" x="0" y="0" width="60" height="440">
<rect x="1.9233e-05" y="440" width="440" height="60" transform="rotate(-90 1.9233e-05 440)" fill="#D9D9D9"/>
</mask>
<g mask="url(#mask0_26_18)">
<path d="M-52.5 458.5L50.4012 458.5L50.9048 457.752L51.0134 452.096L47.6467 446.889L50.5065 440.9L49.1342 435.636L45.0763 430.855L47.6105 424.712L47.538 419.025L46.3895 413.176L48.7491 407.674L50.2137 402.116L49.0157 396.082L49.1737 390.282L51.8625 384.161L51.6288 377.79L48.6142 371.722L48.3773 365.87L49.7266 360.296L53.2546 355.87L52.9551 350.316L54.2945 345.116L54.9297 339.766L55.3312 334.389L54.3209 328.947L55.8743 323.649L57.194 318.423L56.4173 312.51L55.7755 306.627L54.9889 300.763L55.295 295.019L56.1441 289.31L57.5 283.589L57.2466 278.118L56.1309 272.718L56.2165 267.194L56.8023 261.552L53.5705 256.443L57.2663 250.413L53.5244 245.266L55.9532 239.285L50.5921 235.214L53.2118 228.247L47.1102 225.423L47.6334 218.898L45.1553 214.155L40.8473 210.636L38.6555 205.663L38.1355 199.783L34.0612 195.634L33.9296 189.766L31.8101 184.385L31.583 178.936L34.2586 172.618L33.1627 167.102L29.74 162.366L26.3634 157.627L27.0381 151.639L28.4105 145.642L24.8133 140.715L27.2619 134.911L23.4047 129.164L25.8237 123.371L25.9488 117.514L23.724 111.239L25.8434 105.559L30.4772 101.032L32.3202 96.4856L35.348 91.9694L39.238 96.0853L41.0152 91.5767L41.0711 86.2449L42.2098 81.2114L47.8737 77.2164L44.5629 70.3591L48.9531 66.6925L48.7656 60.5866L50.9311 56.1007L52.1685 51.3391L54.6895 46.5284L53.4586 41.3363L54.413 36.3784L54.1036 31.3561L56.1803 26.3151L55.2852 20.0205L54.3998 13.7786L55.69 7.72939L55.0613 0.139479L56.4666 -2.5L-52.5 -2.5L-52.5 458.5Z" fill="white"/>
<path d="M-68.1838 440.081L44.5076 440.081L45.0591 439.368L45.178 433.972L41.4909 429.005L44.623 423.292L43.12 418.271L38.6761 413.711L41.4477 407.851L41.372 402.427L40.1141 396.848L42.6984 391.6L44.3022 386.298L42.9903 380.542L43.1633 375.01L46.1079 369.171L45.852 363.095L42.5506 357.306L42.2911 351.724L43.7652 346.407L47.6324 342.186L47.3045 336.888L48.7749 331.928L49.4669 326.824L49.9067 321.695L48.8002 316.505L50.5014 311.451L51.9466 306.466L51.096 300.826L50.3932 295.214L49.5318 289.62L49.867 284.142L50.7969 278.696L52.2818 273.239L52.0043 268.02L50.7825 262.87L50.8726 257.6L51.5177 252.219L47.982 247.346L52.0259 241.593L47.928 236.684L50.5879 230.979L44.7167 227.096L47.5856 220.45L40.9035 217.756L41.4765 211.532L38.7626 207.008L34.0447 203.651L31.6444 198.908L31.0749 193.3L26.6129 189.341L26.4688 183.744L24.1477 178.611L23.8954 173.414L26.8292 167.388L25.629 162.126L21.8807 157.609L18.1828 153.089L18.9217 147.376L20.4246 141.656L16.4852 136.956L19.1667 131.42L14.9426 125.938L17.5917 120.413L17.7286 114.826L15.2923 108.84L17.6133 103.423L22.688 99.1041L24.7063 94.7675L28.0222 90.4597L32.2823 94.3857L34.2285 90.0851L34.2898 84.9993L35.5369 80.198L41.7396 76.3873L38.1138 69.8463L42.9218 66.3489L42.7163 60.5247L45.0915 56.2457L46.4431 51.7038L49.2075 47.115L47.8559 42.1624L48.8975 37.4333L48.5623 32.6427L50.8401 27.8343L49.8562 21.83L48.8867 15.8761L50.2959 10.106L49.6111 2.86623L51.1501 0.348513L-68.1838 0.348518L-68.1838 440.081Z" fill="#FFCEAB"/>
</g>
</svg>
