<svg width="440" height="129" viewBox="0 0 440 129" fill="none" xmlns="http://www.w3.org/2000/svg">
<mask id="mask0_3_43" style="mask-type:alpha" maskUnits="userSpaceOnUse" x="0" y="0" width="440" height="129">
<rect width="440" height="129" fill="#D9D9D9"/>
</mask>
<g mask="url(#mask0_3_43)">
<path d="M-18 16V118.901L-17.2523 119.405L-11.5958 119.513L-6.38858 116.147L-0.399757 119.007L4.86411 117.634L9.64457 113.576L15.7882 116.11L21.4749 116.038L27.3241 114.889L32.8258 117.249L38.3841 118.714L44.4182 117.516L50.2183 117.674L56.3393 120.362L62.7095 120.129L68.7776 117.114L74.6305 116.877L80.204 118.227L84.6295 121.755L90.1841 121.455L95.3837 122.795L100.734 123.43L106.111 123.831L111.553 122.821L116.851 124.374L122.077 125.694L127.99 124.917L133.873 124.276L139.737 123.489L145.481 123.795L151.19 124.644L156.911 126L162.382 125.747L167.782 124.631L173.306 124.716L178.948 125.302L184.057 122.07L190.087 125.766L195.234 122.024L201.215 124.453L205.286 119.092L212.253 121.712L215.077 115.61L221.602 116.133L226.345 113.655L229.864 109.347L234.837 107.155L240.717 106.636L244.866 102.561L250.734 102.43L256.115 100.31L261.564 100.083L267.882 102.759L273.398 101.663L278.134 98.24L282.872 94.8634L288.861 95.5381L294.858 96.9105L299.785 93.3133L305.589 95.7619L311.336 91.9047L317.129 94.3237L322.986 94.4487L329.261 92.224L334.941 94.3434L339.468 98.9772L344.014 100.82L348.531 103.848L344.415 107.738L348.923 109.515L354.255 109.571L359.289 110.71L363.284 116.374L370.141 113.063L373.808 117.453L379.913 117.266L384.399 119.431L389.161 120.669L393.972 123.189L399.164 121.959L404.122 122.913L409.144 122.604L414.185 124.68L420.48 123.785L426.721 122.9L432.771 124.19L440.361 123.561L443 124.967V16H-18Z" fill="white"/>
<path d="M0.419312 0.316162V113.008L1.13247 113.559L6.5281 113.678L11.4951 109.991L17.2076 113.123L22.2286 111.62L26.7885 107.176L32.6487 109.948L38.0731 109.872L43.6524 108.614L48.9003 111.198L54.2022 112.802L59.9579 111.49L65.4904 111.663L71.329 114.608L77.4054 114.352L83.1935 111.051L88.7764 110.791L94.0927 112.265L98.3141 116.132L103.612 115.804L108.572 117.275L113.676 117.967L118.805 118.407L123.995 117.3L129.049 119.001L134.034 120.447L139.674 119.596L145.286 118.893L150.88 118.032L156.358 118.367L161.804 119.297L167.261 120.782L172.48 120.504L177.63 119.282L182.9 119.373L188.281 120.018L193.154 116.482L198.907 120.526L203.816 116.428L209.521 119.088L213.404 113.217L220.05 116.086L222.744 109.403L228.968 109.977L233.492 107.263L236.849 102.545L241.592 100.144L247.2 99.5749L251.159 95.1129L256.756 94.9688L261.889 92.6477L267.086 92.3954L273.112 95.3292L278.374 94.129L282.891 90.3807L287.411 86.6828L293.124 87.4217L298.844 88.9246L303.544 84.9852L309.08 87.6667L314.562 83.4426L320.087 86.0917L325.674 86.2286L331.66 83.7922L337.077 86.1133L341.396 91.188L345.732 93.2063L350.04 96.5222L346.114 100.782L350.415 102.729L355.501 102.79L360.302 104.037L364.113 110.24L370.654 106.614L374.151 111.422L379.975 111.216L384.254 113.592L388.796 114.943L393.385 117.707L398.338 116.356L403.067 117.398L407.857 117.062L412.666 119.34L418.67 118.356L424.624 117.387L430.394 118.796L437.634 118.111L440.151 119.65V0.316162H0.419312Z" fill="#FFCEAB"/>
</g>
</svg>
