<svg xmlns="http://www.w3.org/2000/svg" xmlns:xlink="http://www.w3.org/1999/xlink" preserveAspectRatio="xMidYMid meet" version="1.0" viewBox="-1.0 -1.9 502.2 440.5" zoomAndPan="magnify" style="fill: rgb(0, 0, 0);" original_string_length="13939" width="72.33191487236937px" height="63.52057251518985px"><g id="__id5_sr015jqs28"><path d="M494.9,204.1c0,0-1,11.1-25.9,36.5l6.7,10.6c0,0-11.4,18.8-35.2,35.6l6,9c0,0-15.6,18.9-35.4,25.5l3.1,8.6 c0,0-14.8,22.4-36.1,25.9l8.1,11.2c0,0-20.3,23.5-42.7,22.7l4.8,12c0,0-20.8,15.9-47.8,10.9l1,6.1c0,0-18.3,16.3-50.7,19.7v0.2 c-0.2,0-0.5-0.1-0.7-0.1c-0.2,0-0.5,0.1-0.7,0.1v-0.2c-32.4-3.4-50.7-19.7-50.7-19.7l1-6.1c-26.9,5.1-47.8-10.9-47.8-10.9l4.8-12 c-22.4,0.8-42.7-22.7-42.7-22.7l8.1-11.2c-21.4-3.6-36.1-25.9-36.1-25.9l3.1-8.6c-19.8-6.6-35.4-25.5-35.4-25.5l6-9 c-23.8-16.8-35.2-35.6-35.2-35.6l6.7-10.6C6.1,215.2,5.1,204.1,5.1,204.1l11.2-8.9C-1,167.3,0,155.4,0,155.4l13.2-6.1 C1,118.8,6.7,101.9,6.7,101.9l11.2-2c-1.5-27.5,9.7-41.2,9.7-41.2h8.3c0-29,29.4-40.7,29.4-40.7l12.1,7.1C84.5,2.2,120.6,0,120.6,0 l4.8,10.8c20.8-12.7,40.2-10.7,40.2-10.7l8.1,16.4c19.3-8.6,46.3,0,46.3,0v19.8l1-0.2l0,0.1c12.2-0.8,23.9,4.7,29,7.6 c5.1-2.8,16.8-8.3,29.1-7.6l0-0.1l1,0.2V16.5c0,0,27-8.6,46.3,0l8.1-16.4c0,0,19.3-2,40.2,10.7L379.4,0c0,0,36.1,2.2,43.3,25.1 l12.1-7.1c0,0,29.4,11.7,29.4,40.7h8.3c0,0,11.3,13.7,9.8,41.2l11.2,2c0,0,5.7,16.9-6.5,47.4l13.2,6.1c0,0,1,11.9-16.3,39.8 L494.9,204.1z" style="fill: rgb(255, 87, 89);"/></g><g id="__id6_sr015jqs28"><path d="M454.8,146.1c0-3.2-0.1-6.4-0.4-9.5l1-0.1c-0.6-8.4-2.1-16.3-4.3-23.7l-0.9,0.3c-2.3-7.8-5.4-15.2-9.4-22 l0.9-0.5c-4.1-7.1-9-13.5-14.5-19.2l-0.7,0.7c-5.5-5.7-11.8-10.7-18.6-14.9l0.5-0.9c-3.8-2.3-7.7-4.3-11.8-6.1c0,0,0,0,0,0 c-0.7-0.3-1.3-0.6-2-0.8c-2.7-1.1-5.4-2.1-8.1-3l-0.3,0.9c-7.8-2.6-15.6-4.2-23.4-4.9l0.1-1c-8.4-0.8-16.4-0.4-24.1,0.8l0.2,1 c-7.7,1.2-15.4,3.4-23,6.5l-0.4-0.9c-0.5,0.2-0.9,0.4-1.4,0.6c-0.1,0-0.2,0.1-0.3,0.1c-7.1,3-13.7,6.6-19.7,10.5l0.5,0.8 c-6.5,4.2-12.9,9.1-19,14.6l-0.7-0.8c-7.2,6.4-12.9,12.6-17,17.5l0.8,0.6c-4.7,5.5-7.2,9.3-7.3,9.3l-0.8,1.2l-0.8-1.2 c0,0-2.6-3.8-7.3-9.3l0.8-0.6c-4-4.8-9.7-11-16.8-17.3l-0.7,0.7c-6.1-5.5-12.5-10.4-19-14.6l0.5-0.8c-6.3-4.1-13.2-7.9-20.6-11 c-0.3-0.1-0.5-0.2-0.8-0.3l-0.4,0.9c-7.6-3.1-15.3-5.3-23-6.5l0.2-1c-7.3-1.2-14.9-1.6-22.9-1c-0.1,0-0.3,0-0.4,0 c-0.3,0-0.5,0-0.8,0.1l0.1,1c-7.8,0.7-15.6,2.3-23.4,4.9l-0.3-0.9c-3.4,1.1-6.8,2.4-10.3,3.9c-0.3,0.1-0.7,0.3-1,0.5 c-3.7,1.7-7.2,3.5-10.7,5.6l0.5,0.8c-6.8,4.1-13.1,9.1-18.7,14.8l-0.7-0.7C68.9,76.8,64,83.3,59.9,90.3l0.9,0.5 c-3.9,6.8-7.1,14.2-9.4,21.9l-0.9-0.3c-2.2,7.4-3.7,15.4-4.4,23.7l1,0.1c-0.3,3.2-0.4,6.5-0.4,9.8c0,4.6,0.3,9.4,0.8,14.2l-1,0.1 c0.7,7.1,2,14.4,3.9,21.9c0.2,0.6,0.3,1.2,0.5,1.8l0.9-0.3c2,7.5,4.5,15.1,7.6,22.8l-0.9,0.4c2,4.8,4.2,9.8,6.6,14.7 c0.1,0.2,0.2,0.3,0.3,0.5c1.1,2.2,2.2,4.4,3.4,6.6l0.9-0.5c3.7,6.9,7.8,13.8,12.3,20.7l-0.8,0.5c2.6,3.9,5.3,7.8,8.1,11.8 c0.1,0.2,0.3,0.4,0.4,0.6c1.8,2.4,3.6,4.8,5.5,7.3l0.8-0.6c4.8,6.2,9.9,12.4,15.3,18.6l-0.7,0.6c0.2,0.3,0.5,0.5,0.7,0.8 c0.2,0.2,0.4,0.5,0.6,0.7c4.8,5.4,9.8,10.8,15.1,16.2l0.7-0.7c5.5,5.6,11.3,11.2,17.3,16.8l-0.7,0.7c5.8,5.3,11.8,10.6,18.1,16 l0.6-0.7c6,5.1,12.3,10.2,18.7,15.2l-0.6,0.8c6.2,4.8,12.6,9.7,19.3,14.5l0.6-0.8c6.4,4.6,13,9.3,19.7,13.9l-0.5,0.8 c6.6,4.5,13.4,9,20.4,13.4l0.5-0.8c3.1,2,6.3,4,9.6,6c3.2-2,6.4-4,9.6-6l0.5,0.8c7-4.4,13.7-8.9,20.2-13.3l-0.5-0.8 c6.7-4.6,13.4-9.2,19.8-13.9l0.6,0.8c6.7-4.8,13.1-9.7,19.3-14.5l-0.6-0.8c6.4-5,12.7-10.1,18.7-15.2l0.6,0.7 c6.2-5.2,12.1-10.4,17.8-15.6c0.1-0.1,0.3-0.2,0.4-0.3l-0.7-0.7c6-5.5,11.9-11.2,17.3-16.8l0.7,0.7c5.1-5.2,9.9-10.3,14.5-15.5 c0.5-0.5,0.9-1,1.4-1.5c0.2-0.2,0.4-0.5,0.6-0.7l-0.7-0.6c5.4-6.2,10.6-12.4,15.3-18.6l0.8,0.6c1.7-2.3,3.4-4.5,5.1-6.7 c0.4-0.5,0.8-1.1,1.2-1.6c2.7-3.8,5.4-7.6,7.8-11.3l-0.8-0.5c4.5-6.9,8.7-13.8,12.3-20.7l0.9,0.5c1.1-2.1,2.2-4.1,3.2-6.2 c0.3-0.6,0.6-1.2,0.9-1.8c2.3-4.7,4.4-9.3,6.2-13.9l-0.9-0.4c3.1-7.6,5.7-15.2,7.7-22.7l0.9,0.3c0.1-0.5,0.3-1,0.4-1.6 c1.9-7.6,3.3-15,4-22.1l-1-0.1C454.5,155.6,454.8,150.8,454.8,146.1z M84.1,180.5c0-0.1-2.4-10.1-2.7-23.9l2,0 c0.2,13.6,2.6,23.4,2.6,23.5L84.1,180.5z M85.4,133l-2-0.4c1.6-8.3,4.2-16,7.7-22.8l1.8,0.9C89.5,117.3,86.9,124.8,85.4,133z M106.8,91.8l-1.4-1.4c5.7-5.4,12.4-9.9,20-13.4l0.8,1.8C118.9,82.2,112.4,86.6,106.8,91.8z M158.8,292.2 c-10.7-10.1-17-16.8-17-16.9l1.5-1.4c0.1,0.1,6.3,6.8,17,16.8L158.8,292.2z M172.3,76.8c-8-2.4-15.8-3.6-23.2-3.4l-0.1-2 c7.6-0.2,15.6,0.9,23.8,3.4L172.3,76.8z M194.9,323.7c-6.1-4.9-12.3-10.1-18.4-15.4l1.3-1.5c6,5.3,12.2,10.4,18.3,15.3L194.9,323.7z M194,86.2l1-1.8c6.6,3.6,13.4,8,20.2,13.1l-1.2,1.6C207.2,94.1,200.5,89.7,194,86.2z M233.5,352c-6.5-4.3-13.1-8.9-19.6-13.7 l1.2-1.6c6.5,4.8,13.1,9.4,19.6,13.7L233.5,352z M248.9,131.3c-2.8-3.1-8.6-9.5-16.7-17l1.3-1.5c8.2,7.5,14.1,14,16.9,17.1 L248.9,131.3z M271.4,109.8l1.3,1.5c-7.5,6.7-13.4,12.8-17,16.7l-1.5-1.4C257.9,122.6,263.9,116.5,271.4,109.8z M254.8,362l-1.2-1.6 c2.7-1.9,10-7,19.5-13.9l1.2,1.6C264.8,355,257.5,360.2,254.8,362z M290.2,94.8c6.9-4.9,13.8-9.1,20.5-12.5l0.9,1.8 c-6.6,3.3-13.4,7.5-20.3,12.4L290.2,94.8z M293.7,334l-1.2-1.6c6.7-5,13.2-9.8,19.1-14.4l1.2,1.6C306.9,324.1,300.4,329,293.7,334z M331.7,304.8l-1.3-1.5c7-5.7,13.2-10.8,18.3-15.4l1.3,1.5C344.9,293.9,338.7,299.1,331.7,304.8z M357,73.8 c-7.4-0.8-15.2-0.1-23.3,1.9l-0.5-1.9c8.3-2.1,16.4-2.7,24-1.9L357,73.8z M393.7,236.5l-1.7-0.7l0.3-0.7c0.2-0.3,1.5-1.7,3.4-4.4 l1.6,1.2C395.2,234.7,393.9,236.2,393.7,236.5z M403.2,98.6l1.4-1.4c0.3,0.3,7.2,7.4,12.7,20.6l-1.8,0.8 C410.1,105.8,403.3,98.7,403.2,98.6z M409.2,211.1l-1.8-0.8c3.2-7,6-14.5,8.4-22.2l1.9,0.6C415.3,196.5,412.5,204,409.2,211.1z M423,165.2l-2-0.3c0.7-4.5,1-9.1,1-13.5c0-3.4-0.2-6.8-0.6-10l2-0.2c0.4,3.4,0.6,6.8,0.6,10.3C424,155.9,423.6,160.6,423,165.2z" style="fill: rgb(249, 155, 182);"/></g><g id="__id7_sr015jqs28"><path d="M220.6,193.2c-0.9-3.6,1.4-7.3,5-8.1s7.3,1.4,8.1,5s-1.4,7.3-5,8.1S221.5,196.8,220.6,193.2z M177.3,141.8 c-2.6,2.6-2.6,6.9,0,9.5c2.6,2.6,6.9,2.6,9.5,0c2.6-2.6,2.6-6.9,0-9.5C184.2,139.1,179.9,139.1,177.3,141.8z M222.4,141.8 c-2.6,2.6-2.6,6.9,0,9.5c2.6,2.6,6.9,2.6,9.5,0c2.6-2.6,2.6-6.9,0-9.5C229.3,139.1,225,139.1,222.4,141.8z M183.6,198.2 c3.6-0.9,5.9-4.5,5-8.1c-0.9-3.6-4.5-5.9-8.1-5c-3.6,0.9-5.9,4.5-5,8.1C176.3,196.8,180,199,183.6,198.2z M273.8,153.1 c3.6-0.9,5.9-4.5,5-8.1s-4.5-5.9-8.1-5c-3.6,0.9-5.9,4.5-5,8.1C266.6,151.7,270.2,153.9,273.8,153.1z M318.9,153.1 c3.6-0.9,5.9-4.5,5-8.1s-4.5-5.9-8.1-5c-3.6,0.9-5.9,4.5-5,8.1C311.7,151.7,315.3,153.9,318.9,153.1z M277,196.4 c2.6-2.6,2.6-6.9,0-9.5c-2.6-2.6-6.9-2.6-9.5,0c-2.6,2.6-2.6,6.9,0,9.5C270.1,199,274.4,199,277,196.4z M322.2,196.4 c2.6-2.6,2.6-6.9,0-9.5c-2.6-2.6-6.9-2.6-9.5,0c-2.6,2.6-2.6,6.9,0,9.5C315.3,199,319.5,199,322.2,196.4z M222.4,276.3 c-2.6,2.6-2.6,6.9,0,9.5c2.6,2.6,6.9,2.6,9.5,0c2.6-2.6,2.6-6.9,0-9.5C229.3,273.7,225,273.7,222.4,276.3z M180.5,229.4 c-3.6,0.9-5.9,4.5-5,8.1s4.5,5.9,8.1,5c3.6-0.9,5.9-4.5,5-8.1S184.1,228.6,180.5,229.4z M225.6,229.4c-3.6,0.9-5.9,4.5-5,8.1 s4.5,5.9,8.1,5c3.6-0.9,5.9-4.5,5-8.1C232.9,230.8,229.2,228.6,225.6,229.4z M177.3,276.3c-2.6,2.6-2.6,6.9,0,9.5 c2.6,2.6,6.9,2.6,9.5,0c2.6-2.6,2.6-6.9,0-9.5C184.2,273.7,179.9,273.7,177.3,276.3z M277,240.8c2.6-2.6,2.6-6.9,0-9.5 c-2.6-2.6-6.9-2.6-9.5,0s-2.6,6.9,0,9.5C270.1,243.4,274.4,243.4,277,240.8z M322.2,240.8c2.6-2.6,2.6-6.9,0-9.5 c-2.6-2.6-6.9-2.6-9.5,0c-2.6,2.6-2.6,6.9,0,9.5C315.3,243.4,319.5,243.4,322.2,240.8z M270.7,274.5c-3.6,0.9-5.9,4.5-5,8.1 c0.9,3.6,4.5,5.9,8.1,5c3.6-0.9,5.9-4.5,5-8.1C278,275.9,274.4,273.7,270.7,274.5z M324,279.5c-0.9-3.6-4.5-5.9-8.1-5 c-3.6,0.9-5.9,4.5-5,8.1c0.9,3.6,4.5,5.9,8.1,5C322.6,286.8,324.8,283.2,324,279.5z" style="fill: rgb(255, 223, 236);"/></g><g id="__id8_sr015jqs28"><path d="M139.7,41.2l-15.2-30l0.9-0.5l0.9-0.5l15.3,30.1l-1.4,0.7C140,41.2,139.8,41.2,139.7,41.2z M105,50.1l0.7-0.7 L78,24.3l-1.3,1.5L104,50.6C104.3,50.5,104.6,50.3,105,50.1z M65.1,221.7l-0.7-1.2l-33.9,19.3l1,1.7l33.8-19.3 C65.3,222,65.2,221.8,65.1,221.7z M89.2,261.3l-0.8-1L58.9,286l1.3,1.5l29.4-25.6C89.5,261.7,89.4,261.5,89.2,261.3z M110.3,288 l-22.1,32.7l0.8,0.5l0.8,0.6l21.9-32.5c-0.2-0.2-0.4-0.5-0.6-0.7L110.3,288z M325.4,16.1l-13.2,32.6l1.6,0.7c0.1,0,0.2-0.1,0.3-0.1 l13.1-32.4L325.4,16.1z M396.5,50.2l26.8-24.3l-0.7-0.7l-0.7-0.7l-27.5,25C395.1,49.6,395.8,49.8,396.5,50.2 C396.5,50.2,396.5,50.2,396.5,50.2z M456.7,143.5c0-2.4-0.1-4.8-0.3-7.1l-1,0.1l-1,0.1c0.2,3.1,0.4,6.3,0.4,9.5 c0,4.7-0.3,9.6-0.8,14.4l1,0.1l1,0.1c0.5-4.9,0.8-9.8,0.8-14.6c0-0.2,0-0.4,0-0.5l29.9,4.8l0.3-2L456.7,143.5z M450.5,184.3 l-0.9-0.3c-2,7.5-4.6,15.1-7.7,22.8l0.9,0.4l0.9,0.4c3.1-7.5,5.6-15.1,7.6-22.6l32,11.2l0.3-0.9l0.3-0.9l-33.1-11.6 C450.8,183.2,450.7,183.8,450.5,184.3z M435.8,222.8l32.7,18.6l0.5-0.9l0.5-0.9L436.6,221C436.3,221.6,436,222.2,435.8,222.8z M411.2,262.6l28.5,24.9l0.7-0.8l0.6-0.8l-28.7-25C412,261.6,411.6,262.1,411.2,262.6z M388.8,290.2l21.3,31.6l0.8-0.6l0.8-0.5 l-21.6-32.1C389.7,289.2,389.3,289.7,388.8,290.2z M250.7,103.3l0.8-1.2c0,0,2.6-3.8,7.3-9.3l-0.8-0.6l-0.8-0.6 c-2.5,3-4.4,5.4-5.6,7L251,43.9l-2,0l0.7,54.5c-1.2-1.7-3.1-4-5.5-6.9l-0.8,0.6l-0.8,0.6c4.7,5.5,7.2,9.3,7.3,9.3L250.7,103.3z M49.4,112.2l1,0.3l0.9,0.3c2.3-7.8,5.5-15.1,9.4-21.9l-0.9-0.5L59,89.8c-3.1,5.3-5.7,11-7.8,16.9l-33.1-7.8l-0.5,1.9l32.9,7.8 C50.2,109.8,49.8,111,49.4,112.2z M200.5,368l-0.6,0.8c2.9,2.1,5.9,4.2,8.8,6.3l-10,37.2l1.9,0.5l9.8-36.5c3.1,2.1,6.1,4.3,9.2,6.4 l0.6-0.8l0.5-0.8c-6.7-4.6-13.4-9.2-19.7-13.9L200.5,368z M44.7,146.1c0,4.7,0.3,9.5,0.8,14.4l1-0.1l1-0.1 c-0.5-4.8-0.8-9.5-0.8-14.2c0-3.3,0.1-6.6,0.4-9.8l-1-0.1l-1-0.1c-0.2,2.3-0.3,4.7-0.3,7.1l-31.6,5l0.2,1l0.2,1l31.3-5 C44.7,145.5,44.7,145.8,44.7,146.1z M162.4,338.3l-0.7,0.8c4,3.3,8.1,6.7,12.3,10.1l-18.4,40.2l1.8,0.8l18.1-39.7 c1.6,1.3,3.3,2.6,4.9,3.9l0.6-0.8l0.6-0.8c-6.4-5-12.7-10.1-18.7-15.2L162.4,338.3z M95.1,269.2l-0.8,0.6c4.8,6.2,10,12.5,15.4,18.7 l0.8-0.7l0.7-0.6c-5.4-6.1-10.6-12.4-15.3-18.6L95.1,269.2z M74.5,71.2l0.7,0.7C80.7,66.2,87,61.2,93.8,57l-0.5-0.8l-0.5-0.8 c-6.4,3.9-12.3,8.5-17.7,13.8L36.2,57.8l-0.6,1.9l38.6,11.3L74.5,71.2z M115.6,47.2c7.8-2.6,15.6-4.2,23.4-4.9l-0.1-1l-0.1-1 c-7.9,0.7-15.9,2.4-23.8,5l0.3,1L115.6,47.2z M127.6,304.8l-0.7,0.7l-0.7,0.7c5,5.1,10.3,10.2,15.7,15.3l-20.8,33.9l0.8,0.5l0.9,0.5 l20.5-33.5c0.1,0.1,0.1,0.1,0.2,0.2l0.7-0.7l0.7-0.7C138.9,316,133.1,310.4,127.6,304.8z M68.7,228.8l-0.9,0.5 c3.7,6.9,7.9,13.9,12.4,20.8l0.9-0.5l0.8-0.5c-4.5-6.9-8.6-13.8-12.3-20.7L68.7,228.8z M226.6,74.8l0.5-0.5l0.1,0l0-0.1l0.1-0.1 c-0.1,0-0.1-0.1-0.2-0.2L221,36.3l0-0.1l-1,0.2l-1,0.2l5.8,35.4c-5.4-4.7-11-9-16.7-12.7l-0.5,0.8l-0.5,0.8 c6.5,4.2,12.9,9.1,19,14.6L226.6,74.8z M57.5,207.3l0.9-0.4l0.9-0.4c-3.1-7.6-5.7-15.3-7.6-22.8l-0.9,0.3c-0.2-0.6-0.3-1.2-0.5-1.8 l-34.4,12l0.7,1.9l33.3-11.6C51.9,192,54.4,199.7,57.5,207.3z M186.1,48.8c0.3,0.1,0.5,0.2,0.8,0.3l0.9-0.4l-13.2-32.6l-1.9,0.8 l12.3,30.4c-7.3-2.9-14.6-4.9-22-6.1l-0.2,1l-0.2,1c7.7,1.2,15.4,3.4,23,6.5L186.1,48.8z M260.3,394.5c-3.2,2-6.3,4-9.6,6 c-3.2-2-6.4-4-9.6-6l-0.5,0.8l-0.5,0.9c3.2,2,6.4,4,9.7,6.1v36.2c0.1,0,0.2,0,0.3,0c0.2,0,0.5,0.1,0.7,0.1v-0.2c0.3,0,0.7-0.1,1-0.1 v-36c3.3-2,6.5-4,9.7-6.1l-0.5-0.8L260.3,394.5z M339.5,339.2l-0.7-0.8l-0.6-0.7c-6,5.1-12.3,10.2-18.7,15.2l0.6,0.8l0.6,0.8 c1.4-1.1,2.7-2.1,4.1-3.2l17.8,38.9l1.8-0.8l-18-39.4C330.9,346.4,335.3,342.8,339.5,339.2z M294.1,59.9l-0.5-0.8 C287.3,63.2,281,68,275,73.3l6-36.8l-1-0.2l-1-0.2l0,0.1l-6.2,38l2,0.3l0-0.1l0.2,0.2l0.7,0.7c6.1-5.5,12.5-10.4,19-14.6L294.1,59.9 z M420.2,249.7l0.8,0.5c4.5-6.9,8.7-13.9,12.4-20.8l-0.9-0.5l-0.9-0.5c-3.7,6.8-7.8,13.8-12.3,20.7L420.2,249.7z M391.6,288.7 c5.5-6.2,10.6-12.5,15.4-18.7l-0.8-0.6l-0.8-0.6c-4.8,6.2-9.9,12.4-15.3,18.6l0.7,0.6L391.6,288.7z M375,306.4l-0.7-0.7l-0.7-0.7 c-5.5,5.6-11.3,11.2-17.3,16.8l0.7,0.7c-0.1,0.1-0.3,0.2-0.4,0.3l20.6,33.6l0.9-0.5l0.8-0.5l-20.3-33 C364.3,317,369.8,311.7,375,306.4z M300.8,368.2l-0.6-0.8c-6.4,4.6-13,9.3-19.8,13.9l0.5,0.8l0.6,0.8c2.8-1.9,5.5-3.8,8.2-5.7 l9.6,35.6l1.9-0.5l-9.8-36.3c3.3-2.3,6.6-4.7,9.8-7L300.8,368.2z M408.3,56.3l-0.5,0.9c6.8,4.2,13.1,9.2,18.6,14.9l0.7-0.7l0.7-0.7 c-0.1-0.1-0.2-0.2-0.2-0.2l36.8-10.7l-0.6-1.9l-37.9,11c-5.2-5.1-10.9-9.6-17.2-13.4L408.3,56.3z M442.5,90.1l-0.9,0.5l-0.9,0.5 c3.9,6.8,7.1,14.2,9.4,22l0.9-0.3l1-0.3c-0.4-1.4-0.9-2.7-1.3-4.1l31.6-7.5l-0.2-1l-0.2-1l-31.8,7.5 C448,100.7,445.5,95.2,442.5,90.1z M338.7,42.2l-0.2-1c-7.8,1.3-15.7,3.5-23.4,6.6l0.4,0.9l0.4,0.9c7.6-3.1,15.3-5.3,23-6.5 L338.7,42.2z M160.1,290.8c-10.6-10.1-16.9-16.8-17-16.8l-1.5,1.4c0.1,0.1,6.3,6.8,17,16.9L160.1,290.8z M176.5,308.3 c6,5.3,12.2,10.5,18.4,15.4l1.3-1.5c-6.1-4.9-12.3-10.1-18.3-15.3L176.5,308.3z M292.5,332.3l1.2,1.6c6.7-5,13.2-9.9,19.1-14.4 l-1.2-1.6C305.6,322.5,299.2,327.4,292.5,332.3z M330.4,303.2l1.3,1.5c7.1-5.7,13.3-10.9,18.4-15.4l-1.3-1.5 C343.6,292.4,337.5,297.5,330.4,303.2z M253.7,360.4l1.2,1.6c2.7-1.9,10-7,19.5-14l-1.2-1.6C263.7,353.4,256.4,358.5,253.7,360.4z M213.8,338.3c6.6,4.8,13.2,9.4,19.6,13.7l1.1-1.7c-6.5-4.3-13-8.9-19.6-13.7L213.8,338.3z M91.1,109.7c-3.5,6.8-6.1,14.5-7.7,22.8 l1.9,0.4c1.6-8.1,4.1-15.6,7.5-22.3L91.1,109.7z M86,180c0-0.1-2.4-9.9-2.6-23.5l-2,0c0.2,13.8,2.6,23.8,2.7,23.9L86,180z M172.3,76.8l0.6-1.9c-8.3-2.5-16.2-3.6-23.9-3.4l0.1,2C156.4,73.3,164.2,74.4,172.3,76.8z M125.5,77c-7.6,3.5-14.3,8-20,13.4 l1.4,1.4c5.5-5.2,12.1-9.6,19.5-13L125.5,77z M250.4,130c-2.8-3.2-8.7-9.6-16.9-17.1l-1.3,1.5c8.1,7.5,14,13.9,16.7,17L250.4,130z M215.1,97.5c-6.8-5.1-13.6-9.5-20.2-13.1l-1,1.8c6.5,3.6,13.2,7.9,19.9,12.9L215.1,97.5z M357.2,71.8c-7.6-0.8-15.7-0.1-24,1.9 l0.5,1.9c8.1-2,16-2.6,23.3-1.9L357.2,71.8z M291.3,96.4c6.9-4.9,13.7-9,20.3-12.4l-0.9-1.8c-6.7,3.4-13.6,7.6-20.5,12.5L291.3,96.4 z M255.7,128c3.6-3.9,9.5-10,17-16.7l-1.3-1.5c-7.5,6.7-13.5,12.9-17.2,16.8L255.7,128z M397.2,232l-1.6-1.2 c-1.9,2.7-3.2,4.1-3.4,4.4l-0.3,0.7l1.7,0.7C393.9,236.2,395.2,234.7,397.2,232z M423,165.2c0.7-4.6,1-9.3,1-13.8 c0-3.4-0.2-6.9-0.6-10.3l-2,0.2c0.4,3.3,0.6,6.7,0.6,10c0,4.4-0.3,9-1,13.5L423,165.2z M404.6,97.2l-1.4,1.4 c0.1,0.1,6.9,7.2,12.3,20l1.8-0.8C411.8,104.6,404.9,97.5,404.6,97.2z M417.7,188.6l-1.9-0.6c-2.3,7.8-5.1,15.2-8.3,22.2l1.8,0.8 C412.5,204,415.3,196.5,417.7,188.6z M375.6,11.1l-0.9-0.3l-0.9-0.3L363,40.3c0,0-0.1,0-0.2,0l0,0.6l-0.1,0.2l0,0l0,0.2l-0.1,1 c7.8,0.7,15.6,2.3,23.4,4.9l0.3-0.9l0.3-1c-7.2-2.4-14.4-3.9-21.6-4.8L375.6,11.1z" style="fill: rgb(91, 1, 22);"/></g></svg>